<?xml version="1.0" standalone="no"?>
<!DOCTYPE svg PUBLIC "-//W3C//DTD SVG 1.1//EN" "http://www.w3.org/Graphics/SVG/1.1/DTD/svg11.dtd" >
<svg xmlns="http://www.w3.org/2000/svg" xmlns:xlink="http://www.w3.org/1999/xlink" version="1.1">
<metadata>
Created by FontForge 20190801 at Wed Sep 21 21:52:14 2016
 By Jimmy Wärting
Copyright 2006-2009 Dalton Maag Ltd. All rights reserved. This font may not be altered in any way without prior permission of Dalton Maag Ltd. DaMa is a trademark of Dalton Maag Ltd.
</metadata>
<defs>
<font id="OBoticario" horiz-adv-x="1124" >
  <font-face 
    font-family="OBoticario"
    font-weight="400"
    font-stretch="normal"
    units-per-em="2048"
    panose-1="2 11 5 4 5 2 2 2 2 3"
    ascent="1638"
    descent="-410"
    x-height="963"
    cap-height="1376"
    bbox="-96 -459 2048 1774"
    underline-thickness="40"
    underline-position="-311"
    unicode-range="U+000D-FB04"
  />
<missing-glyph horiz-adv-x="748" 
d="M68 0v1365h544v-1365h-544zM136 68h408v1229h-408v-1229z" />
    <glyph glyph-name="uniFB01" unicode="fi" horiz-adv-x="1181" 
d="M150 37v995q0 217 115.5 326.5t336.5 109.5q61 0 117.5 -15t100.5 -37.5t77 -52.5t49 -56q10 -16 13.5 -36t3.5 -38q0 -25 -15.5 -43.5t-38.5 -18.5q-18 0 -28.5 8.5t-18.5 22.5q-35 63 -102.5 105.5t-159.5 42.5q-82 0 -135 -18.5t-85 -52.5t-44 -80t-12 -101v-135h303
q29 0 39 -14.5t10 -49.5t-10.5 -49t-38.5 -14h-303v-799q0 -29 -22.5 -40t-63.5 -11t-64.5 11t-23.5 40zM838 190v742q0 18 10 30.5t29 12.5h8q47 0 87 -30t40 -107v-635q0 -66 14 -92.5t55 -36.5q23 -4 32 -11.5t9 -27.5q0 -35 -36.5 -42t-77.5 -7q-74 0 -122 42t-48 162z
" />
    <glyph glyph-name="uniFB02" unicode="fl" horiz-adv-x="1181" 
d="M150 37v995q0 217 115.5 326.5t336.5 109.5q106 0 184 -30.5t128.5 -84t74 -123t23.5 -145.5v-882q0 -66 14 -92.5t55 -36.5q23 -4 32 -11.5t9 -27.5q0 -35 -36.5 -42t-77.5 -7q-74 0 -122 42t-48 162v900q0 135 -60.5 199.5t-177.5 64.5q-82 0 -135 -19.5t-85 -53.5
t-44 -81t-12 -102v-135h303q29 0 39 -14.5t10 -49.5t-10.5 -49t-38.5 -14h-303v-799q0 -29 -22.5 -40t-63.5 -11t-64.5 11t-23.5 40z" />
    <glyph glyph-name="uniFB03" unicode="ffi" horiz-adv-x="1863" 
d="M150 37v1034q0 397 366 397q121 0 197 -53q39 -29 47 -45t8 -37q0 -23 -10 -43t-31 -20q-10 0 -18.5 7t-24.5 17q-43 31 -83 43.5t-81 12.5q-88 0 -142 -45t-54 -168v-174h507v69q0 217 116 326.5t337 109.5q61 0 117.5 -15t100.5 -37.5t77 -52.5t49 -56q10 -16 13.5 -36
t3.5 -38q0 -25 -15.5 -43.5t-38.5 -18.5q-18 0 -28.5 8.5t-18.5 22.5q-35 63 -102.5 105.5t-159.5 42.5q-82 0 -135 -18.5t-85 -52.5t-44 -80t-12 -101v-135h303q29 0 39 -14.5t10 -49.5t-10.5 -49t-38.5 -14h-303v-799q0 -29 -22.5 -40t-63.5 -11t-65 11t-24 40v799h-507
v-799q0 -29 -22.5 -40t-63.5 -11t-64.5 11t-23.5 40zM1520 190v742q0 18 10 30.5t29 12.5h8q47 0 87 -30t40 -107v-635q0 -66 14 -92.5t55 -36.5q23 -4 32 -11.5t9 -27.5q0 -35 -36.5 -42t-77.5 -7q-74 0 -122 42t-48 162z" />
    <glyph glyph-name="uniFB04" unicode="ffl" horiz-adv-x="1863" 
d="M150 37v1034q0 397 366 397q121 0 197 -53q39 -29 47 -45t8 -37q0 -23 -10 -43t-31 -20q-10 0 -18.5 7t-24.5 17q-43 31 -83 43.5t-81 12.5q-88 0 -142 -45t-54 -168v-174h507v69q0 217 116 326.5t337 109.5q106 0 184 -30.5t128.5 -84t74 -123t23.5 -145.5v-882
q0 -66 14 -92.5t55 -36.5q23 -4 32 -11.5t9 -27.5q0 -35 -36.5 -42t-77.5 -7q-74 0 -122 42t-48 162v900q0 135 -60.5 199.5t-177.5 64.5q-82 0 -135 -19.5t-85 -53.5t-44 -81t-12 -102v-135h303q29 0 39 -14.5t10 -49.5t-10.5 -49t-38.5 -14h-303v-799q0 -29 -22.5 -40
t-63.5 -11t-65 11t-24 40v799h-507v-799q0 -29 -22.5 -40t-63.5 -11t-64.5 11t-23.5 40z" />
    <glyph glyph-name=".notdef" horiz-adv-x="748" 
d="M68 0v1365h544v-1365h-544zM136 68h408v1229h-408v-1229z" />
    <glyph glyph-name=".null" horiz-adv-x="0" 
 />
    <glyph glyph-name="uni000D" unicode="&#xd;" horiz-adv-x="409" 
 />
    <glyph glyph-name="uni001D" horiz-adv-x="0" 
 />
    <glyph glyph-name="uni001D" horiz-adv-x="0" 
 />
    <glyph glyph-name="space" unicode=" " horiz-adv-x="409" 
 />
    <glyph glyph-name="exclam" unicode="!" horiz-adv-x="460" 
d="M113 90q0 53 32.5 89t85.5 36q51 0 84 -36t33 -89t-32.5 -87t-84.5 -34q-53 0 -85.5 34t-32.5 87zM137 1331v4q4 41 37 41h12q25 0 48.5 -6t42 -21.5t29.5 -41t11 -64.5v-4l-10 -838q0 -45 -37 -45h-8q-43 0 -77.5 30t-37.5 112z" />
    <glyph glyph-name="quotedbl" unicode="&#x22;" horiz-adv-x="671" 
d="M106 1358v4q4 35 35 35h6q41 0 78 -25.5t37 -91.5v-10l-18 -342q-2 -43 -66 -43q-66 0 -65 43zM411 1358v4q4 35 35 35h6q41 0 78 -25.5t37 -91.5v-10l-18 -342q-2 -43 -66 -43q-66 0 -65 43z" />
    <glyph glyph-name="numbersign" unicode="#" horiz-adv-x="1341" 
d="M74 401q0 33 10 56.5t41 23.5h235l46 324h-232q-39 0 -39 35q0 33 10.5 56.5t40.5 23.5h236l43 303q4 33 29 32h6q31 0 63.5 -19t32.5 -71v-16l-33 -229h330l43 303q4 33 29 32h6q31 0 63.5 -19t32.5 -71v-16l-33 -229h223q39 0 39 -35q0 -33 -10 -56.5t-41 -23.5h-227
l-45 -324h223q39 0 39 -35q0 -33 -10.5 -56t-40.5 -23h-228l-38 -277q0 -45 -72 -45q-70 0 -70 39v6l39 277h-330l-39 -277q0 -45 -71 -45q-70 0 -70 39v6l39 277h-231q-39 0 -39 34zM502 481h329l46 324h-330z" />
    <glyph glyph-name="dollar" unicode="$" 
d="M121 147q0 31 11 53.5t34 22.5q10 0 19.5 -4t25.5 -16q55 -45 121.5 -76t159.5 -33v545q-68 23 -131.5 51.5t-112.5 70.5t-80 102.5t-31 146.5q0 82 26.5 144.5t75 106.5t113 70.5t140.5 36.5v154q0 12 7 21t19 9h6q35 0 64.5 -21.5t29.5 -80.5v-80q78 -4 153 -27.5
t130 -68.5q39 -33 39 -74q0 -31 -11 -53.5t-36 -22.5q-10 0 -18.5 4.5t-22.5 16.5q-41 33 -96.5 62.5t-137.5 39.5v-483q70 -25 132.5 -54.5t110.5 -73.5t77 -105.5t29 -147.5q0 -178 -93.5 -278.5t-255.5 -124.5v-142q0 -37 -63 -37t-63 37v133q-115 4 -198 33t-134 70
q-16 16 -27.5 33.5t-11.5 39.5zM295 1024q0 -90 50 -136t147 -81v436q-197 -35 -197 -219zM618 106q94 25 138.5 90.5t44.5 159.5q0 100 -44 152.5t-139 89.5v-492z" />
    <glyph glyph-name="percent" unicode="%" horiz-adv-x="1685" 
d="M98 1036q0 180 87 270.5t223 90.5q311 -1 311 -361q0 -178 -86 -270t-223 -92q-147 0 -229.5 92t-82.5 270zM252 1036q0 -123 37 -189.5t119 -66.5q86 0 122.5 66.5t36.5 191.5q0 123 -36.5 188.5t-122.5 65.5q-82 0 -119 -66.5t-37 -189.5zM311 18q0 14 11 31l845 1270
q18 29 49 54.5t82 25.5q66 0 66 -35q0 -14 -14 -35l-842 -1263q-25 -37 -48.5 -59.5t-76.5 -22.5q-33 0 -52.5 8t-19.5 26zM958 332q0 180 87.5 270t222.5 90q311 0 311 -360q0 -178 -86 -270.5t-223 -92.5q-147 0 -229.5 92.5t-82.5 270.5zM1112 332q0 -123 37 -189.5
t119 -66.5q86 0 122.5 66.5t36.5 191.5q0 123 -36.5 188.5t-122.5 65.5q-82 0 -119 -66.5t-37 -189.5z" />
    <glyph glyph-name="ampersand" unicode="&#x26;" horiz-adv-x="1429" 
d="M106 383q0 88 28 160.5t76 130t113.5 98.5t141.5 70q-47 59 -71.5 117.5t-24.5 130.5q0 70 26.5 127t72.5 97t108.5 61.5t136.5 21.5q92 0 153.5 -22.5t106.5 -57.5q18 -16 29.5 -32.5t11.5 -39.5q0 -31 -12.5 -50t-36.5 -19q-10 0 -18.5 4t-24.5 16q-47 37 -93.5 56.5
t-109.5 17.5q-92 -2 -138 -51.5t-46 -128.5q0 -53 28.5 -103.5t65.5 -103.5q90 -129 186 -250t197 -242q47 96 65.5 199.5t18.5 202.5v30q0 16 10 28.5t27 12.5h6q35 0 62.5 -23.5t27.5 -80.5q0 -96 -31 -222t-102 -245l209 -246q10 -14 10 -22q0 -23 -29 -33t-49 -10
q-43 0 -73.5 13t-61.5 48q-51 55 -101 119q-76 -80 -180 -132.5t-235 -52.5q-117 0 -206 32t-150.5 87.5t-92.5 129t-31 157.5zM279 395q0 -72 24.5 -125t66.5 -90t98 -55.5t122 -18.5q121 0 195.5 36t136.5 112q-102 123 -199 246t-193 252q-135 -53 -193 -139.5
t-58 -217.5z" />
    <glyph glyph-name="quotesingle" unicode="'" horiz-adv-x="366" 
d="M106 1358v4q4 35 35 35h6q41 0 78 -25.5t37 -91.5v-10l-18 -342q-2 -43 -66 -43q-66 0 -65 43z" />
    <glyph glyph-name="parenleft" unicode="(" horiz-adv-x="579" 
d="M111 612q0 172 32.5 311.5t78.5 244t93 171t78 91.5q23 16 41.5 26t40.5 10q23 0 33 -9t10 -19q0 -12 -12 -31q-25 -35 -59.5 -94.5t-66.5 -154.5t-54.5 -229t-22.5 -317q0 -182 22.5 -316t54.5 -229.5t66.5 -154.5t59.5 -94q12 -18 12 -31q0 -10 -10 -19.5t-33 -9.5
t-41 10.5t-41 26.5q-31 25 -78 90.5t-93 170t-78.5 244.5t-32.5 312z" />
    <glyph glyph-name="parenright" unicode=")" horiz-adv-x="579" 
d="M61 -213q0 12 13 31q25 35 59.5 94t66 154.5t54 229.5t22.5 316t-22.5 316.5t-54 229.5t-66.5 154.5t-59 94.5q-12 18 -13 31q0 10 10.5 19t32.5 9q23 0 41.5 -10t40.5 -26q31 -25 78 -91.5t93 -171t79 -244t33 -311.5t-33 -312t-79 -244.5t-93 -170t-78 -90.5
q-23 -16 -41 -26.5t-41 -10.5t-33 9.5t-10 19.5z" />
    <glyph glyph-name="asterisk" unicode="*" horiz-adv-x="798" 
d="M76 1225q0 25 14 49q23 41 57 41q18 0 37 -11.5t37 -27.5l86 -80q6 -4 12.5 -14.5t6.5 -20.5q0 -25 -13.5 -33t-29.5 -8q-12 0 -37 6l-105 31q-17 4 -37 14q-29 14 -28 54zM78 963q0 39 28 53q12 6 24.5 10t23.5 8l104 33q16 4 27 4q16 0 26.5 -12t10.5 -29
q0 -14 -8.5 -25.5t-18.5 -21.5l-98 -94q-18 -18 -45 -19q-33 0 -62 45q-6 10 -9 23.5t-3 24.5zM317 799q0 14 3.5 31.5t7.5 27.5l24 94q6 23 14.5 37.5t30.5 14.5q31 0 41 -46l25 -106q4 -12 6 -25.5t2 -25.5q0 -27 -18.5 -46.5t-57.5 -19.5t-58.5 17.5t-19.5 46.5z
M328 1401q0 27 18.5 46t56.5 19q39 0 58.5 -18t19.5 -47q0 -14 -3 -30.5t-7 -27.5l-25 -98q-6 -25 -13 -37t-30 -12q-33 0 -43 47l-24 107q-4 10 -6 23t-2 28zM473 1026q0 16 10.5 28.5t26.5 12.5q10 0 27 -4l104 -33q10 -4 22.5 -8t24.5 -10q29 -14 29 -54q0 -10 -3 -23
t-9 -24q-29 -45 -62 -45q-27 0 -45 19l-98 94q-10 10 -18.5 21.5t-8.5 25.5zM473 1157q0 10 6 20.5t13 14.5l86 80q18 16 36.5 27.5t36.5 11.5q35 0 58 -41q14 -25 14 -49q0 -40 -29 -54q-20 -10 -37 -14l-104 -31q-25 -6 -37 -6q-16 0 -29.5 8.5t-13.5 32.5z" />
    <glyph glyph-name="plus" unicode="+" 
d="M152 692q0 45 13 58.5t52 13.5h270v285q0 39 16.5 52t61.5 13q43 0 60.5 -13.5t17.5 -51.5v-285h270q39 0 52.5 -13.5t13.5 -58.5q0 -43 -13.5 -57t-52.5 -14h-270v-285q0 -39 -17.5 -52.5t-60.5 -13.5q-45 0 -61.5 13.5t-16.5 52.5v285h-270q-39 0 -52 14t-13 57z" />
    <glyph glyph-name="comma" unicode="," horiz-adv-x="462" 
d="M90 -211q0 12 8 20.5t21 16.5q45 29 64.5 64.5t29.5 76.5q-43 10 -66.5 46t-23.5 83q0 51 28.5 85t81.5 34q59 0 88 -42t29 -101q0 -106 -41 -180t-104 -115q-16 -10 -34.5 -14.5t-33.5 -4.5q-16 0 -31.5 7.5t-15.5 23.5z" />
    <glyph glyph-name="hyphen" unicode="-" horiz-adv-x="903" 
d="M141 592q0 16 16.5 26.5t45.5 10.5h430q86 0 114.5 -27t28.5 -78q0 -16 -16.5 -26.5t-44.5 -10.5h-430q-86 0 -115 27t-29 78z" />
    <glyph glyph-name="period" unicode="." horiz-adv-x="460" 
d="M113 96q0 53 33.5 90t82.5 37q51 0 85 -37t34 -90t-32.5 -90t-86.5 -37q-51 0 -83.5 37t-32.5 90z" />
    <glyph glyph-name="slash" unicode="/" horiz-adv-x="780" 
d="M39 20q0 12 6 29l502 1241q12 33 43 59.5t86 26.5q35 0 49 -7t14 -23q0 -18 -8 -35l-508 -1254q-16 -41 -40.5 -57t-73.5 -16q-70 0 -70 36z" />
    <glyph glyph-name="zero" unicode="0" horiz-adv-x="1083" 
d="M60 668q0 162 30.5 292t92 221t153.5 140t215 49q242 0 357.5 -184t115.5 -518q0 -340 -121.5 -519.5t-357.5 -179.5q-240 0 -362.5 174t-122.5 525zM248 668q0 -158 21.5 -266.5t60.5 -176t94.5 -98.5t122.5 -31q68 0 121 30t92 96.5t59.5 176t20.5 269.5t-20.5 270.5
t-59.5 178t-92 97t-121 29.5t-123 -29.5t-94 -97t-60.5 -178.5t-21.5 -270z" />
    <glyph glyph-name="one" unicode="1" horiz-adv-x="768" 
d="M43 1092q0 29 17.5 46t43.5 33q59 35 123 72t129 72q41 23 71 35t60 12q12 0 26.5 -1t26 -7t18.5 -19.5t7 -38.5v-1259q0 -29 -22.5 -40t-63.5 -11t-65.5 11t-24.5 40v1149q-68 -35 -141.5 -74t-132.5 -72q-10 -4 -18.5 -8t-14.5 -4q-23 0 -31 23.5t-8 40.5z" />
    <glyph glyph-name="two" unicode="2" horiz-adv-x="1024" 
d="M68 72q0 47 35.5 82.5t95.5 91.5q76 72 166 157.5t167.5 180t129 194t51.5 197.5q0 135 -56.5 201.5t-191.5 66.5q-53 0 -97 -13t-81 -32.5t-67.5 -43.5t-57.5 -44t-43 -20q-25 0 -36 19t-11 48q0 23 14.5 42.5t30.5 35.5q14 14 47 37.5t81 45t107.5 37t130.5 15.5
q82 0 156 -20.5t129 -65.5t88 -118.5t33 -180.5q0 -109 -46 -210t-127 -204.5t-193.5 -212t-245.5 -231.5h557q59 0 80.5 -28.5t21.5 -63.5v-6q0 -29 -33 -29h-749q-37 0 -61.5 15.5t-24.5 56.5z" />
    <glyph glyph-name="three" unicode="3" horiz-adv-x="1015" 
d="M47 156q0 27 12.5 49t36.5 22q10 0 18.5 -3t24.5 -17q59 -51 130 -81t167 -30q51 0 102.5 13.5t93.5 46t68.5 89t26.5 140.5q0 86 -32.5 137t-77.5 79t-92.5 37t-73.5 9h-84q-47 0 -47 64q0 66 47 65h84q27 0 68.5 10.5t80.5 36t66.5 72.5t27.5 121q0 109 -55 168
t-180 59q-104 0 -174 -39t-123 -80q-27 -20 -41 -20q-25 0 -37 18.5t-12 48.5q0 16 11.5 35t29.5 35q61 53 156.5 91t201.5 38q104 0 180 -25.5t125.5 -71.5t73 -107.5t23.5 -135.5q0 -68 -26 -120t-61.5 -91t-76.5 -62.5t-72 -35.5q45 -12 92 -35.5t86 -63.5t64.5 -97.5
t25.5 -135.5q0 -86 -28.5 -161.5t-86 -132t-145.5 -90.5t-204 -34q-72 0 -129.5 12.5t-100.5 29t-73.5 36t-49.5 33.5q-41 35 -41 74z" />
    <glyph glyph-name="four" unicode="4" horiz-adv-x="1075" 
d="M86 430q0 25 10.5 51.5t25 53t30.5 50t31 44.5q104 156 214.5 310.5t231.5 313.5q35 47 67 77t81 30q27 0 50 -9.5t23 -56.5v-798h64q59 0 80.5 -31t21.5 -66v-6q0 -33 -32 -33h-134v-323q0 -51 -84 -51q-82 0 -81 51v323h-512q-37 0 -62 14.5t-25 55.5zM238 498h447v637
q-119 -152 -229.5 -315t-217.5 -322z" />
    <glyph glyph-name="five" unicode="5" horiz-adv-x="1060" 
d="M75 152q0 31 12.5 52t37.5 21q10 0 18 -3t25 -17q59 -51 129.5 -80t166.5 -29q59 0 113.5 16.5t94.5 53.5t63.5 98.5t23.5 151.5q0 98 -26.5 159.5t-70.5 96.5t-103.5 47t-124.5 12q-47 0 -94.5 -7t-85.5 -17q-14 -4 -31 -8.5t-31 -4.5q-23 0 -35 15.5t-8 62.5l53 520
q4 33 26.5 47.5t90.5 14.5h543q33 0 33 -33v-6q0 -35 -21.5 -60.5t-81.5 -25.5h-459l-39 -398q27 6 76 13.5t103 7.5q94 0 178 -20.5t148.5 -69.5t102.5 -131t38 -205q0 -94 -30 -177t-88.5 -144.5t-147.5 -97.5t-205 -36q-70 0 -125.5 10.5t-98.5 27t-74.5 35.5t-54.5 38
q-41 31 -41 70z" />
    <glyph glyph-name="six" unicode="6" horiz-adv-x="1083" 
d="M109 555q0 186 52 327.5t133 240t180.5 156.5t195.5 79q47 10 90 10q45 0 78 -12.5t33 -63.5q0 -23 -15.5 -32t-52.5 -11q-113 -4 -197.5 -44t-146 -104.5t-100.5 -145.5t-58 -167q37 33 108 68t179 35q98 0 173 -32t127 -90t79 -139t27 -179q0 -117 -33 -207
t-91.5 -151.5t-138 -92.5t-171.5 -31q-229 0 -340 151.5t-111 434.5zM279 522q0 -78 11 -153.5t43 -137t87.5 -99.5t145.5 -38q113 0 180 82t67 262q0 68 -13 128.5t-43 106.5t-76 73.5t-111 27.5q-57 0 -103.5 -13t-82 -32.5t-60.5 -40t-37 -33.5q-4 -25 -6 -58.5t-2 -74.5
z" />
    <glyph glyph-name="seven" unicode="7" horiz-adv-x="958" 
d="M39 1255v7q0 35 21.5 63.5t81.5 28.5h708q41 0 62.5 -14.5t21.5 -55.5q0 -23 -5 -43t-15 -41q-143 -283 -273.5 -566.5t-259.5 -572.5q-18 -41 -43.5 -59t-85.5 -18q-31 0 -51 9t-20 30q0 10 6 26q141 295 285.5 587t300.5 587h-701q-33 0 -33 32z" />
    <glyph glyph-name="eight" unicode="8" horiz-adv-x="1122" 
d="M92 367q0 55 19.5 109t54.5 101.5t82 83t102 56.5q-111 41 -162 121t-51 172q0 88 36 155.5t96.5 112.5t136 68.5t155.5 23.5q84 0 161 -20.5t135 -63.5t93 -108.5t35 -155.5q0 -98 -56.5 -176t-160.5 -125q125 -39 193.5 -136t68.5 -210q0 -100 -37 -176t-100.5 -127.5
t-148.5 -77t-183 -25.5q-104 0 -190 24.5t-148.5 74t-96.5 124t-34 175.5zM266 371q0 -78 21.5 -131.5t61.5 -87t93.5 -48t118.5 -14.5q129 0 211 65.5t82 221.5q0 133 -79 205.5t-214 72.5t-215 -76.5t-80 -207.5zM309 1008q0 -53 19.5 -97.5t54.5 -75t80 -47t98 -16.5
q51 0 97 17.5t80 49t53.5 76t19.5 97.5q0 59 -19.5 104t-53.5 75t-80 45t-97 15q-104 0 -178 -61.5t-74 -181.5z" />
    <glyph glyph-name="nine" unicode="9" horiz-adv-x="1079" 
d="M93 893q0 115 34.5 204t94 150.5t141.5 93t174 31.5q219 0 329.5 -151.5t110.5 -434.5q0 -188 -52 -328.5t-133 -238.5t-181.5 -156.5t-194.5 -78.5q-47 -10 -90 -11q-23 0 -42 2t-34.5 9.5t-24.5 23t-9 41.5q0 23 15 32t52 11q113 4 198 45t146.5 106.5t100 147.5
t57.5 168q-37 -33 -109.5 -67.5t-165.5 -34.5q-104 0 -183 31.5t-131 89t-77.5 137.5t-25.5 178zM271 905q0 -68 13 -128t44 -105t80 -72t119 -27q57 0 101 13.5t78 33t57.5 40t35.5 32.5q4 25 6 55.5t2 71.5q0 76 -10 153t-38.5 138t-84 99t-143.5 38q-113 0 -186.5 -83
t-73.5 -259z" />
    <glyph glyph-name="colon" unicode=":" horiz-adv-x="460" 
d="M113 96q0 53 33.5 90t82.5 37q51 0 85 -37t34 -90t-32.5 -90t-86.5 -37q-51 0 -83.5 37t-32.5 90zM113 870q0 53 33.5 90t82.5 37q51 0 85 -37t34 -90t-32.5 -90t-86.5 -37q-51 0 -83.5 37t-32.5 90z" />
    <glyph glyph-name="semicolon" unicode=";" horiz-adv-x="487" 
d="M104 -211q0 12 8 20.5t21 16.5q45 29 64.5 64.5t29.5 76.5q-43 10 -66.5 46t-23.5 83q0 51 28.5 85t81.5 34q59 0 88 -42t29 -101q0 -106 -41 -180t-104 -115q-16 -10 -34.5 -14.5t-33.5 -4.5q-16 0 -31.5 7.5t-15.5 23.5zM125 870q0 53 33.5 90t82.5 37q51 0 85 -37
t34 -90t-32.5 -90t-86.5 -37q-51 0 -83.5 37t-32.5 90z" />
    <glyph glyph-name="less" unicode="&#x3c;" 
d="M156 686q0 57 41 78l708 326q12 6 23 6q39 0 39 -60q0 -41 -11.5 -59.5t-48.5 -34.5l-536 -250l536 -260q37 -18 48.5 -34.5t11.5 -57.5q0 -59 -39 -59q-10 0 -23 6l-708 325q-41 18 -41 74z" />
    <glyph glyph-name="equal" unicode="=" 
d="M150 489q0 45 13 61.5t52 16.5h690q39 0 52.5 -16t13.5 -62q0 -43 -13.5 -60t-52.5 -17h-690q-39 0 -52 17t-13 60zM150 881q0 45 13 61t52 16h690q39 0 52.5 -16t13.5 -61q0 -43 -13.5 -60.5t-52.5 -17.5h-690q-39 0 -52 17.5t-13 60.5z" />
    <glyph glyph-name="greater" unicode="&#x3e;" 
d="M156 340q0 41 11 58.5t48 35.5l537 254l-537 256q-37 16 -48 33.5t-11 58.5q0 59 39 60q10 0 22 -6l709 -326q41 -18 41 -74q0 -59 -41 -78l-709 -325q-12 -6 -22 -6q-39 0 -39 59z" />
    <glyph glyph-name="question" unicode="?" horiz-adv-x="899" 
d="M37 1214q0 23 11 40.5t30 33.5q14 12 43 30.5t72 36t99 30t128 12.5q82 0 154.5 -21.5t128 -65.5t88 -112t32.5 -160q0 -63 -21.5 -118.5t-55 -102.5t-74.5 -90t-82 -82q-55 -53 -96 -105.5t-41 -117.5v-19q0 -47 -37 -47q-29 0 -46.5 12.5t-27.5 30t-14 37t-4 33.5
q0 41 13 76t34.5 65.5t50.5 60t57 58.5l62.5 62.5t52 64.5t37 78t14.5 98q0 68 -20.5 113t-54 71.5t-77.5 37t-94 10.5q-80 0 -146.5 -28t-123.5 -75q-27 -20 -43 -20q-25 0 -37 21.5t-12 51.5zM279 94q0 53 33.5 90t82.5 37q53 0 87 -37t34 -90t-33.5 -89t-87.5 -36
q-49 0 -82.5 36t-33.5 89z" />
    <glyph glyph-name="at" unicode="@" horiz-adv-x="1925" 
d="M133 463q0 197 57.5 363.5t168 289.5t270 191.5t364.5 68.5q197 0 344.5 -60.5t245.5 -162.5t148.5 -238.5t50.5 -289.5q0 -180 -44 -325.5t-130 -248t-215 -158t-297 -55.5q-143 0 -251 47t-180.5 129t-108.5 188.5t-36 227.5q0 158 38 259.5t95.5 158.5t126 78.5
t129.5 21.5q49 0 89 -11t70 -27.5t49.5 -35t31.5 -30.5q10 47 43 67.5t70 20.5h8q35 0 35 -39v-541q0 -57 14 -81.5t49 -32.5q18 -4 27.5 -9.5t9.5 -21.5q0 -31 -37 -37t-74 -6q-33 0 -60.5 8t-49 29.5t-33.5 57.5t-12 91v391q-8 12 -25.5 28.5t-43.5 32t-59.5 26
t-72.5 10.5q-55 0 -101 -19.5t-79 -65.5t-51.5 -125t-18.5 -198q0 -80 18.5 -163t65.5 -150.5t130 -110.5t212 -43q113 0 206 37t159.5 117t103.5 204.5t37 303.5q0 152 -44 268.5t-127 195t-201 118.5t-265 40q-176 0 -309 -60.5t-224.5 -169t-137.5 -258t-46 -325.5
q0 -55 6.5 -96t8.5 -68q4 -41 -15.5 -52t-46.5 -11q-55 0 -74 98q-6 35 -9 79t-3 79z" />
    <glyph glyph-name="A" unicode="A" horiz-adv-x="1273" 
d="M76 43l465 1245q23 63 49 75.5t65 12.5q47 0 70 -17.5t41 -68.5l432 -1235q4 -12 4 -20q0 -47 -84 -47q-49 0 -70.5 12t-33.5 49l-111 346h-545l-125 -352q-12 -35 -31.5 -47t-60.5 -12q-69 0 -69 38q0 5 4 21zM399 512h467l-223 694z" />
    <glyph glyph-name="B" unicode="B" horiz-adv-x="1161" 
d="M160 61v1248q0 41 22.5 51t55.5 12q59 4 119.5 8t136.5 4q141 0 238 -22.5t156.5 -65.5t86 -107.5t26.5 -146.5q0 -74 -23.5 -127t-57 -91t-71.5 -60.5t-67 -34.5q33 -8 82 -26.5t93 -55.5t76 -98.5t32 -155.5q0 -115 -39 -190.5t-110.5 -120.5t-174 -63.5t-227.5 -18.5
h-238q-68 0 -92 14.5t-24 46.5zM338 123h149q106 0 181 12t122.5 44t70 84t22.5 132q0 72 -21.5 120t-63.5 77t-101.5 41t-133.5 12h-78q-51 0 -51 64q0 35 11.5 48t39.5 13h78q129 0 194.5 66.5t65.5 187.5q0 133 -77.5 185.5t-251.5 52.5q-49 0 -91.5 -2.5t-64.5 -6.5
v-1130z" />
    <glyph glyph-name="C" unicode="C" horiz-adv-x="1220" 
d="M125 680q0 154 36 286t110.5 227t188 149.5t271.5 54.5q117 0 206 -33t155 -86q41 -35 41 -74q0 -31 -12.5 -53.5t-37.5 -22.5q-10 0 -18 3.5t-25 17.5q-51 45 -127.5 81t-181.5 36q-123 0 -204 -49.5t-129 -131t-68.5 -187t-20.5 -216.5q0 -106 18.5 -210.5t67.5 -186.5
t133 -133.5t213 -51.5q94 0 170 36t127 81q16 14 24.5 17.5t18.5 3.5q25 0 37 -22.5t12 -53.5q0 -39 -40 -74q-66 -53 -155 -86t-206 -33q-158 0 -272.5 53.5t-188 147.5t-108.5 225t-35 285z" />
    <glyph glyph-name="D" unicode="D" horiz-adv-x="1296" 
d="M162 61v1248q0 41 22.5 50t55.5 13q78 8 143.5 10t124.5 2q197 0 328 -53t209.5 -145t111.5 -215t33 -262q0 -186 -60.5 -341t-193.5 -251q-160 -117 -455 -117h-202q-68 0 -92.5 14.5t-24.5 46.5zM340 127h170q133 0 227 39t153.5 112.5t87.5 180t28 239.5
q0 125 -25 228.5t-82 177.5t-152.5 115t-234.5 41q-41 0 -85 -2.5t-87 -8.5v-1122z" />
    <glyph glyph-name="E" unicode="E" horiz-adv-x="1042" 
d="M160 61v1248q0 33 24.5 47t91.5 14h650q33 0 32 -29v-6q0 -35 -21.5 -64.5t-80.5 -29.5h-518v-459h420q29 0 42 -15t13 -52q0 -66 -55 -66h-420v-520h549q59 0 80.5 -29.5t21.5 -64.5v-6q0 -29 -33 -29h-680q-68 0 -92 14.5t-24 46.5z" />
    <glyph glyph-name="F" unicode="F" horiz-adv-x="972" 
d="M160 39v1270q0 33 24.5 47t91.5 14h650q33 0 32 -29v-6q0 -35 -21.5 -64.5t-80.5 -29.5h-518v-448h420q29 0 42 -15.5t13 -52.5q0 -66 -55 -66h-420v-620q0 -53 -88 -53q-41 0 -65.5 12t-24.5 41z" />
    <glyph glyph-name="G" unicode="G" horiz-adv-x="1333" 
d="M125 690q0 154 37 284t112.5 223t193.5 146.5t277 53.5q117 0 204 -32t153 -85q41 -35 41 -74q0 -31 -12.5 -53.5t-36.5 -22.5q-10 0 -18.5 3.5t-24.5 17.5q-51 45 -129 80t-183 35q-125 0 -207.5 -48.5t-133 -129t-71 -184t-20.5 -214.5q0 -117 21.5 -224.5t74 -189
t137.5 -130t212 -48.5q106 0 180 29t106 51v410h-247q-29 0 -41.5 14t-12.5 49q0 37 12.5 51.5t41.5 14.5h301q68 0 92 -14.5t24 -47.5v-467q0 -51 -28.5 -76.5t-65.5 -48.5q-61 -35 -156.5 -64.5t-224.5 -29.5q-158 0 -272.5 53.5t-189 149.5t-110.5 228t-36 290z" />
    <glyph glyph-name="H" unicode="H" horiz-adv-x="1331" 
d="M162 39v1292q0 45 39 45h8q47 0 89 -29.5t42 -111.5v-457h651v553q0 45 39 45h8q47 0 89 -29.5t42 -111.5v-1196q0 -53 -88 -53q-41 0 -65.5 12t-24.5 41v608h-651v-608q0 -53 -88 -53q-41 0 -65.5 12t-24.5 41z" />
    <glyph glyph-name="I" unicode="I" horiz-adv-x="491" 
d="M156 39v1292q0 45 39 45h8q47 0 89 -29.5t42 -111.5v-1196q0 -53 -88 -53q-41 0 -65.5 12t-24.5 41z" />
    <glyph glyph-name="J" unicode="J" horiz-adv-x="507" 
d="M-76.5 -257q19.5 7 43.5 11q113 12 159 77t46 194v1306q0 45 39 45h8q47 0 89 -29.5t42 -111.5v-1110q0 -43 -2 -88t-6 -92q-6 -59 -27.5 -114.5t-61.5 -98.5t-99.5 -70t-141.5 -27q-108 0 -108 71q0 30 19.5 37z" />
    <glyph glyph-name="K" unicode="K" horiz-adv-x="1150" 
d="M162 39v1292q0 45 39 45h8q47 0 89 -29.5t42 -111.5v-1196q0 -53 -88 -53q-41 0 -65.5 12t-24.5 41zM420 788l477 525q29 31 54.5 45t47.5 14q51 0 62.5 -10t11.5 -27q0 -14 -16 -35l-498 -536l549 -707q14 -16 14 -30q0 -23 -26.5 -33t-63.5 -10q-53 0 -87 18t-64 57
l-459 592q-29 38 -29 72t27 65z" />
    <glyph glyph-name="L" unicode="L" horiz-adv-x="980" 
d="M160 61v1270q0 45 39 45h8q47 0 89 -29.5t42 -111.5v-1102h500q59 0 80.5 -31.5t21.5 -66.5v-6q0 -29 -33 -29h-631q-68 0 -92 14.5t-24 46.5z" />
    <glyph glyph-name="M" unicode="M" horiz-adv-x="1603" 
d="M141 37l97 1284q2 31 19 43t60 12t69 -20.5t42 -55.5l373 -827l393 832q16 33 42 52t60 19q72 0 74 -55l92 -1284q2 -29 -20.5 -40t-63.5 -11q-82 0 -84 51l-71 1040l-355 -735q-10 -23 -27.5 -32t-52.5 -9q-68 0 -83 39l-336 725l-70 -1028q-2 -51 -78 -51q-82 0 -80 51
z" />
    <glyph glyph-name="N" unicode="N" horiz-adv-x="1351" 
d="M178 35v1282q0 41 19.5 50t52.5 9q45 0 66.5 -15t43.5 -52l664 -1037v1065q0 39 35 39h6q43 0 76 -26.5t33 -98.5v-1210q0 -27 -17.5 -39t-60.5 -12q-66 0 -103 59l-665 1022v-1036q0 -29 -19.5 -39t-54.5 -10t-55.5 10t-20.5 39z" />
    <glyph glyph-name="O" unicode="O" horiz-adv-x="1431" 
d="M125 690q0 141 35 269t108.5 225.5t187 155t271.5 57.5q154 0 263.5 -55.5t180 -150.5t103.5 -224.5t33 -274.5q0 -147 -34 -278t-105.5 -229.5t-185.5 -157t-273 -58.5q-158 0 -269.5 59.5t-181.5 159t-101.5 230.5t-31.5 272zM313 690q0 -115 20.5 -221.5t68 -189
t124 -133t191.5 -50.5q113 0 190.5 48.5t124.5 130t67.5 189t20.5 226.5q0 113 -20.5 218.5t-66.5 185.5t-121.5 128t-186.5 48q-117 0 -195.5 -46t-127 -125t-69 -184.5t-20.5 -224.5z" />
    <glyph glyph-name="P" unicode="P" horiz-adv-x="1101" 
d="M160 39v1270q0 41 22.5 50t55.5 13q55 6 120.5 9t124.5 3q283 0 413 -100t130 -299q0 -133 -46 -221t-117.5 -141.5t-163 -75t-179.5 -21.5h-35q-29 0 -40 13.5t-11 48.5t11.5 48t39.5 13h19q176 0 257 79t81 245q0 82 -23.5 137t-67.5 89t-107.5 49.5t-145.5 15.5
q-53 0 -90 -2t-70 -7v-1216q0 -53 -88 -53q-41 0 -65.5 12t-24.5 41z" />
    <glyph glyph-name="Q" unicode="Q" horiz-adv-x="1443" 
d="M125 690q0 141 35 269t108.5 225.5t187 155t271.5 57.5q154 0 263.5 -55.5t180 -150.5t103.5 -224.5t33 -274.5q0 -147 -34 -278t-105.5 -229.5t-185.5 -157t-273 -58.5q-158 0 -269.5 59.5t-181.5 159t-101.5 230.5t-31.5 272zM313 690q0 -115 20.5 -221.5t68 -189
t124 -133t191.5 -50.5q113 0 190.5 48.5t124.5 130t67.5 189t20.5 226.5q0 113 -20.5 218.5t-66.5 185.5t-121.5 128t-186.5 48q-117 0 -195.5 -46t-127 -125t-69 -184.5t-20.5 -224.5zM750 -150q0 16 8 28.5t33 12.5q23 0 39 -9t51 -32q53 -33 121.5 -47t138.5 -24
q49 -6 57 -32q5 -17 5 -34q0 -8 -1 -16q-10 -53 -44 -66.5t-71 -13.5q-41 0 -98 19.5t-110.5 52t-91 74.5t-37.5 87z" />
    <glyph glyph-name="R" unicode="R" horiz-adv-x="1138" 
d="M162 39v1272q0 41 22.5 50t55.5 13q59 6 121.5 8t121.5 2q272 0 399.5 -92t127.5 -293q0 -86 -33 -152.5t-85 -115.5t-115.5 -79.5t-125.5 -45.5l406 -563q8 -14 8 -25q0 -18 -21.5 -27t-56.5 -9q-47 0 -82 16t-59 57l-371 518q-10 16 -21.5 33t-11.5 39q0 25 9.5 39
t37.5 14q63 0 124 17.5t108 53.5t74.5 91t27.5 129q0 154 -85 214.5t-251 60.5q-49 0 -83.5 -2t-63.5 -7v-1216q0 -53 -88 -53q-41 0 -65.5 12t-24.5 41z" />
    <glyph glyph-name="S" unicode="S" horiz-adv-x="1015" 
d="M59 152q0 31 11.5 53t35.5 22q10 0 19.5 -4t26.5 -16q55 -43 137 -75t180 -32q80 0 135 21.5t90 56.5t50.5 82t15.5 100q0 59 -19.5 101.5t-56.5 74t-89 54t-118 43.5q-76 23 -145.5 51.5t-123.5 71.5t-87 106.5t-33 157.5q0 92 34 162.5t92 118t138 72t174 24.5
q98 0 191.5 -27t159.5 -80q18 -16 29.5 -32.5t11.5 -38.5q0 -31 -12.5 -53.5t-37.5 -22.5q-10 0 -18.5 4t-24.5 16q-47 37 -119.5 70t-179.5 33q-141 0 -205.5 -61.5t-64.5 -170.5q0 -51 23.5 -88t64.5 -64.5t99.5 -50t129.5 -45.5q76 -25 141.5 -55.5t114 -76.5t76 -111.5
t27.5 -155.5q0 -205 -122 -311.5t-341 -106.5q-129 0 -223 35t-144 74q-18 16 -30.5 33.5t-12.5 40.5z" />
    <glyph glyph-name="T" unicode="T" horiz-adv-x="1105" 
d="M8 1268v6q0 35 21.5 65.5t81.5 30.5h950q33 0 33 -29v-6q0 -35 -21.5 -65.5t-81.5 -30.5h-354v-1200q0 -53 -88 -53q-41 0 -65.5 12t-24.5 41v1200h-418q-33 0 -33 29z" />
    <glyph glyph-name="U" unicode="U" horiz-adv-x="1304" 
d="M152 539v792q0 45 38 45h9q47 0 89 -29.5t42 -111.5v-735q0 -94 15 -168t51 -126t96.5 -80t152.5 -28q141 0 218 56.5t100 169.5q8 35 10 82t2 94v831q0 45 39 45h8q47 0 89 -29.5t42 -111.5v-690q0 -41 -1 -84t-5 -82q-8 -86 -40 -161t-93.5 -130t-152.5 -87t-220 -32
q-221 0 -332.5 98.5t-144.5 272.5q-8 43 -10 94t-2 105z" />
    <glyph glyph-name="V" unicode="V" horiz-adv-x="1175" 
d="M33 1333q0 27 29.5 35t52.5 8q100 0 137 -114l340 -1096l373 1096q16 53 41.5 83.5t78.5 30.5q23 0 40.5 -9t17.5 -30q0 -10 -2 -16l-439 -1219q-20 -53 -41.5 -82.5t-78.5 -29.5h-15q-49 0 -68.5 23.5t-31.5 58.5l-432 1247q-2 6 -2 14z" />
    <glyph glyph-name="W" unicode="W" horiz-adv-x="1787" 
d="M33 1333q0 27 29.5 35t52.5 8q102 0 137 -114l326 -1096l256 885l-82 268q-2 6 -2 14q0 29 27.5 36t49.5 7q96 0 127 -114l293 -1096l330 1096q16 53 42 83.5t79 30.5q23 0 40 -9t17 -30q0 -10 -2 -16l-395 -1219q-10 -27 -19.5 -48t-21.5 -35.5t-29.5 -21.5t-46.5 -7
h-14q-49 0 -67.5 23.5t-29.5 58.5l-227 768l-215 -738q-18 -55 -40.5 -83.5t-80.5 -28.5h-14q-49 0 -69.5 23.5t-30.5 58.5l-418 1247q-2 6 -2 14z" />
    <glyph glyph-name="X" unicode="X" horiz-adv-x="1148" 
d="M84 16q0 10 10 27l404 649l-381 615q-10 16 -11 28q0 23 30 32t59 9q43 0 75.5 -23.5t59.5 -66.5l268 -455l264 453q35 59 64.5 74.5t62.5 15.5q23 0 38 -8t15 -25q0 -12 -8 -26l-356 -592l403 -684q8 -16 9 -23q0 -23 -27 -29.5t-55 -6.5q-55 0 -85 19t-59 71l-291 514
l-309 -521q-18 -31 -33.5 -46t-30 -23t-28.5 -9t-31 -1q-23 0 -40 7t-17 25z" />
    <glyph glyph-name="Y" unicode="Y" horiz-adv-x="1067" 
d="M33 1341q0 16 19.5 26.5t68.5 10.5q53 0 79.5 -20.5t49.5 -63.5l301 -604l295 572q20 41 49 77.5t82 36.5q18 0 38.5 -4t20.5 -22q0 -10 -8 -25l-399 -747v-539q0 -53 -88 -53q-41 0 -66.5 12t-25.5 41v524l-406 746q-10 20 -10 32z" />
    <glyph glyph-name="Z" unicode="Z" horiz-adv-x="1067" 
d="M33 78q0 47 32.5 94t61.5 86l686 983h-704q-33 0 -33 29v6q0 35 21.5 64.5t80.5 29.5h764q74 0 74 -74q0 -29 -13.5 -54t-21.5 -38l-758 -1075h707q59 0 80.5 -29.5t21.5 -64.5v-6q0 -29 -33 -29h-880q-37 0 -61.5 18.5t-24.5 59.5z" />
    <glyph glyph-name="bracketleft" unicode="[" horiz-adv-x="550" 
d="M123 -213v1620q0 33 24.5 47t92.5 14h217q29 0 40 -14t11 -49t-11.5 -48.5t-39.5 -13.5h-164v-1493h164q29 0 40 -14t11 -49t-11.5 -48t-39.5 -13h-217q-68 0 -92.5 14t-24.5 47z" />
    <glyph glyph-name="backslash" unicode="\" horiz-adv-x="780" 
d="M39 1346q0 31 65 30q55 0 85 -26.5t44 -59.5l502 -1241q6 -18 6 -29q0 -37 -69 -36q-49 0 -74 16t-41 57l-508 1254q-10 20 -10 35z" />
    <glyph glyph-name="bracketright" unicode="]" horiz-adv-x="550" 
d="M43 -213q0 35 11.5 49t39.5 14h164v1493h-164q-29 0 -40 13.5t-11 48.5t11.5 49t39.5 14h217q68 0 92.5 -14t24.5 -47v-1620q0 -33 -24.5 -47t-92.5 -14h-217q-29 0 -40 13t-11 48z" />
    <glyph glyph-name="asciicircum" unicode="^" 
d="M166 639q0 10 6 27l297 663q23 47 96 47q72 0 92 -47l297 -663q6 -16 7 -27q0 -20 -17.5 -28.5t-42.5 -8.5q-51 0 -68.5 16.5t-33.5 55.5l-240 569l-235 -569q-16 -39 -33 -55.5t-68 -16.5q-25 0 -41 8t-16 29z" />
    <glyph glyph-name="underscore" unicode="_" horiz-adv-x="1024" 
d="M0 -186h1024v-129h-1024v129z" />
    <glyph glyph-name="grave" unicode="`" horiz-adv-x="747" 
d="M186 1370q0 12 10.5 23.5t25 19.5t29.5 13.5t28 5.5q39 0 62.5 -19.5t45.5 -52.5l133 -193q8 -10 8 -24q0 -18 -14 -29.5t-33 -11.5q-35 0 -56.5 16.5t-45.5 40.5l-180 184q-12 12 -13 27z" />
    <glyph glyph-name="a" unicode="a" horiz-adv-x="1087" 
d="M98 465q0 150 38 250t97.5 159.5t133 85t145.5 25.5q53 0 96 -12t75 -29.5t54.5 -37.5t34.5 -34q10 53 43 75t74 22h8q18 0 28.5 -12.5t10.5 -30.5v-725q0 -66 14.5 -91.5t48.5 -33.5q20 -4 30.5 -11.5t10.5 -31.5q0 -16 -11 -25.5t-27.5 -14.5t-36 -6t-35.5 -1
q-55 0 -97 20.5t-61 81.5q-18 -18 -42.5 -38.5t-56.5 -38t-73 -30t-92 -12.5q-86 0 -161 28t-130 87t-87 153.5t-32 227.5zM283 479q0 -78 10 -147.5t38.5 -122.5t82 -85t137.5 -32q45 0 84 13.5t67.5 33t44 42t15.5 42.5v539q-10 12 -29.5 29.5t-47.5 34t-64.5 27.5
t-79.5 11q-137 0 -197.5 -102.5t-60.5 -282.5z" />
    <glyph glyph-name="b" unicode="b" horiz-adv-x="1103" 
d="M152 37v1374q0 18 10 30.5t28 12.5h9q47 0 87 -29.5t40 -107.5v-436q41 41 108.5 72.5t171.5 31.5q80 0 150.5 -26.5t125 -85t86 -151.5t31.5 -228q0 -154 -37.5 -255.5t-98 -161t-134.5 -84t-143 -24.5q-59 0 -103.5 13.5t-77 32t-53 39t-30.5 34.5v-51q0 -51 -84 -51
q-41 0 -63.5 11t-22.5 40zM326 205q12 -16 32.5 -35.5t50 -36t67.5 -29t81 -12.5q129 0 192.5 102.5t63.5 288.5q0 80 -13.5 148.5t-43 121t-79.5 82t-124 29.5q-100 0 -163.5 -43t-63.5 -102v-514z" />
    <glyph glyph-name="c" unicode="c" horiz-adv-x="937" 
d="M98 479q0 152 49.5 250t120 154.5t150.5 79t139 22.5q76 0 142.5 -19.5t127.5 -68.5q37 -31 37 -66q0 -27 -10 -47t-33 -20q-14 0 -37 20q-49 41 -99 61.5t-120 20.5q-152 0 -219 -102t-67 -283q0 -182 68.5 -287.5t219.5 -105.5q47 0 80 6t58.5 17.5t45 26t42.5 30.5
q27 20 38 20q23 0 33 -20.5t10 -46.5q0 -20 -11 -35.5t-27 -30.5q-47 -37 -118 -61.5t-175 -24.5q-59 0 -136 18.5t-145.5 74t-116 154.5t-47.5 263z" />
    <glyph glyph-name="d" unicode="d" horiz-adv-x="1101" 
d="M104 467q0 135 34 233.5t90.5 161t131 93t154.5 30.5q92 0 156.5 -30.5t105.5 -69.5v526q0 18 10.5 30.5t28.5 12.5h8q47 0 87 -29.5t40 -107.5v-1280q0 -51 -84 -51q-41 0 -63.5 11t-22.5 40v45q-16 -16 -40.5 -36.5t-58.5 -37t-77 -28t-94 -11.5q-80 0 -153.5 27
t-130 85t-89.5 153.5t-33 232.5zM289 487q0 -92 12 -165.5t43 -124t81 -78t124 -27.5q49 0 91 12.5t72.5 31t47 43t16.5 48.5v533q-12 12 -31.5 29.5t-48 35t-67.5 28.5t-88 11q-117 0 -184.5 -89t-67.5 -288z" />
    <glyph glyph-name="e" unicode="e" horiz-adv-x="1009" 
d="M98 489q0 129 38 223.5t99.5 155t140.5 89t159 28.5q102 0 174.5 -35t120 -95t70 -140t22.5 -170q0 -57 -20.5 -71.5t-63.5 -14.5h-559q4 -182 75.5 -278.5t218.5 -96.5q51 0 88 7t66 18.5t49.5 26t36.5 26.5q27 20 41 20q23 0 32 -20.5t9 -46.5q0 -20 -11.5 -34.5
t-27.5 -29.5q-47 -37 -120.5 -59.5t-178.5 -22.5q-94 0 -177 28t-145.5 89t-99.5 160.5t-37 242.5zM279 569h473v19q0 52 -10 100q-12 56 -38 96.5t-70 64t-108 23.5q-117 0 -178 -79.5t-69 -223.5z" />
    <glyph glyph-name="f" unicode="f" horiz-adv-x="690" 
d="M150 37v1034q0 397 374 397q72 0 125 -17t88 -44q39 -29 47.5 -46.5t8.5 -37.5q0 -23 -10.5 -43t-30.5 -20q-12 0 -23.5 10t-28.5 20q-45 33 -87 46.5t-85 13.5q-92 0 -148 -45t-56 -168v-174h303q29 0 39 -14.5t10 -49.5t-10.5 -49t-38.5 -14h-303v-799q0 -29 -22.5 -40
t-63.5 -11t-64.5 11t-23.5 40z" />
    <glyph glyph-name="g" unicode="g" horiz-adv-x="1101" 
d="M104 467q0 135 33 233.5t88.5 161t129 93t155.5 30.5q98 0 162.5 -29.5t107.5 -74.5q10 45 45 66.5t78 21.5h8q18 0 28.5 -12.5t10.5 -30.5v-850q0 -125 -21.5 -224.5t-73.5 -168t-141 -105.5t-225 -37q-102 0 -176.5 24.5t-113.5 47.5q-43 29 -53.5 47t-10.5 41
q0 63 41 63q12 0 25.5 -9t29.5 -19q37 -25 93 -50.5t165 -25.5q96 0 153.5 26.5t88.5 77t40 124t9 169.5v25q-16 -16 -40.5 -36.5t-58.5 -37t-77 -28t-94 -11.5q-80 0 -153.5 27t-130 85t-89.5 153.5t-33 232.5zM289 479q0 -88 13 -159.5t44 -122t83 -78t130 -27.5
q47 0 87 12.5t68.5 32t45 43t16.5 43.5v537q-10 12 -29.5 29.5t-49 35t-66.5 28.5t-80 11q-141 0 -201.5 -102.5t-60.5 -282.5z" />
    <glyph glyph-name="h" unicode="h" horiz-adv-x="1114" 
d="M152 37v1374q0 18 9 30.5t27 12.5h9q47 0 87 -29.5t40 -107.5v-453q57 59 139 90t170 31q74 0 128 -17.5t93 -47t61.5 -68.5t32.5 -82q10 -41 12.5 -91t2.5 -97v-545q0 -29 -22.5 -40t-63.5 -11t-65 11t-24 40v579q0 135 -50 189.5t-154 54.5q-59 0 -106.5 -12
t-81.5 -32.5t-52 -47.5t-18 -53v-678q0 -29 -22.5 -40t-63.5 -11t-64.5 11t-23.5 40z" />
    <glyph glyph-name="i" unicode="i" horiz-adv-x="493" 
d="M119 1278q0 51 31.5 84t78.5 33t79 -33t32 -84q0 -47 -32 -79t-79 -32t-78.5 32t-31.5 79zM150 190v742q0 18 10 30.5t28 12.5h9q47 0 87 -30t40 -107v-635q0 -66 14 -92.5t55 -36.5q23 -4 32 -11.5t9 -27.5q0 -35 -37 -42t-78 -7q-74 0 -121.5 42t-47.5 162z" />
    <glyph glyph-name="j" unicode="j" horiz-adv-x="475" 
d="M-63 -401q0 14 5 26.5t27 16.5q90 10 135.5 55t45.5 153v1082q0 18 10 30.5t28 12.5h9q47 0 87 -30t40 -107v-934q0 -123 -34 -194.5t-81 -109.5t-97 -48.5t-83 -10.5q-12 0 -28.5 2t-30 8.5t-23.5 17.5t-10 30zM119 1278q0 51 31.5 84t78.5 33t79 -33t32 -84
q0 -47 -32 -79t-79 -32t-78.5 32t-31.5 79z" />
    <glyph glyph-name="k" unicode="k" horiz-adv-x="1007" 
d="M152 37v1374q0 18 10 30.5t28 12.5h9q47 0 87 -29.5t40 -107.5v-1280q0 -29 -22.5 -40t-63.5 -11t-64.5 11t-23.5 40zM377 539q0 18 7 30.5t22 26.5l350 336q49 43 94 43q31 0 51.5 -9.5t20.5 -25.5q0 -14 -17 -33l-364 -344l424 -508q16 -20 16 -30q0 -18 -22.5 -29.5
t-57.5 -11.5q-41 0 -74.5 14t-66.5 53l-350 418q-14 16 -23.5 31.5t-9.5 38.5z" />
    <glyph glyph-name="l" unicode="l" horiz-adv-x="493" 
d="M150 190v1221q0 18 10 30.5t28 12.5h9q47 0 87 -29.5t40 -107.5v-1114q0 -66 14 -92.5t55 -36.5q23 -4 32 -11.5t9 -27.5q0 -35 -37 -42t-78 -7q-74 0 -121.5 42t-47.5 162z" />
    <glyph glyph-name="m" unicode="m" horiz-adv-x="1673" 
d="M152 37v889q0 18 10 30.5t28 12.5h9q43 0 76.5 -23.5t41.5 -81.5q47 49 125 85t183 36q37 0 75.5 -7t75.5 -22.5t67.5 -40t49.5 -57.5q47 51 128 89t185 38q135 0 207 -61.5t94 -153.5q10 -41 12.5 -91t2.5 -97v-545q0 -29 -22.5 -40t-63.5 -11t-64.5 11t-23.5 40v571
q0 39 -1 75t-12 67q-16 53 -58 81.5t-134 28.5q-68 0 -128.5 -29.5t-88.5 -64.5q12 -66 12 -150v-579q0 -29 -22.5 -40t-63.5 -11t-64.5 11t-23.5 40v571q0 43 -4 81t-15 69q-35 102 -184 102q-45 0 -87 -12t-74.5 -32.5t-53 -46.5t-20.5 -50v-682q0 -29 -22.5 -40
t-63.5 -11t-64.5 11t-23.5 40z" />
    <glyph glyph-name="n" unicode="n" horiz-adv-x="1112" 
d="M152 37v889q0 18 10 30.5t28 12.5h9q43 0 76.5 -23.5t41.5 -81.5q47 47 128 84t192 37q139 0 213 -61.5t96 -153.5q10 -41 12.5 -91t2.5 -97v-545q0 -29 -23 -40t-64 -11t-64.5 11t-23.5 40v579q0 119 -44 181.5t-160 62.5q-59 0 -106.5 -12t-80.5 -32.5t-51 -47.5
t-18 -53v-678q0 -29 -22.5 -40t-63.5 -11t-64.5 11t-23.5 40z" />
    <glyph glyph-name="o" unicode="o" horiz-adv-x="1097" 
d="M98 479q0 102 29 194.5t86 161t142 109.5t200 41q119 0 204 -41t138 -109.5t77.5 -159t24.5 -190.5t-24.5 -193t-78.5 -165t-140 -115t-209 -43t-208 41t-138.5 110.5t-78 163t-24.5 195.5zM281 485q0 -72 10 -143.5t39.5 -127.5t80 -92t130.5 -36q82 0 135 36t84 92
t43 127.5t12 143.5t-10 140.5t-38 123t-78 87t-132 32.5q-78 0 -131 -32.5t-85 -87t-46 -123t-14 -140.5z" />
    <glyph glyph-name="p" unicode="p" horiz-adv-x="1103" 
d="M152 -406v1332q0 18 10 30.5t28 12.5h9q43 0 78.5 -22.5t44.5 -80.5q47 53 113.5 86t170.5 33q80 0 150.5 -26.5t125 -85t86 -151.5t31.5 -228q0 -154 -37.5 -255.5t-98 -161t-134.5 -84t-143 -24.5q-55 0 -98.5 12.5t-76 29t-53 36t-32.5 35.5v-488q0 -29 -22.5 -40
t-63.5 -11t-64.5 11.5t-23.5 39.5zM326 205q12 -16 32.5 -35.5t50 -36t67.5 -29t81 -12.5q129 0 192.5 102.5t63.5 288.5q0 80 -13.5 148.5t-43 121t-79.5 82t-124 29.5q-98 0 -162.5 -42t-64.5 -99v-518z" />
    <glyph glyph-name="q" unicode="q" horiz-adv-x="1101" 
d="M104 465q0 150 38 250t98.5 159.5t134.5 85t145 25.5q53 0 97.5 -12t76 -28.5t54 -35t32.5 -30.5q10 49 46 69.5t77 20.5h8q18 0 28.5 -12.5t10.5 -30.5v-1332q0 -29 -22.5 -40t-63.5 -11t-64.5 11.5t-23.5 39.5v484q-35 -35 -98.5 -72t-161.5 -37q-86 0 -160.5 28
t-131 87t-88.5 153.5t-32 227.5zM289 479q0 -92 13 -164.5t44 -122t83 -75t130 -25.5q47 0 87 12.5t68.5 32t45 43t16.5 43.5v537q-10 12 -29.5 29.5t-49 35t-66.5 28.5t-80 11q-141 0 -201.5 -98.5t-60.5 -286.5z" />
    <glyph glyph-name="r" unicode="r" horiz-adv-x="712" 
d="M152 37v889q0 18 10 30.5t28 12.5h9q47 0 80.5 -27t37.5 -88q35 47 94.5 89t145.5 42q72 0 100.5 -22.5t28.5 -69.5q0 -29 -10 -47.5t-27 -18.5q-10 0 -17 3.5t-18 7.5q-12 4 -32.5 12t-61.5 8q-45 0 -81 -15.5t-61.5 -39t-38.5 -51t-13 -52.5v-663q0 -29 -22.5 -40
t-63.5 -11t-64.5 11t-23.5 40z" />
    <glyph glyph-name="s" unicode="s" horiz-adv-x="858" 
d="M78 121q0 59 41 59q12 0 24.5 -9t28.5 -19q43 -29 100.5 -47.5t128.5 -18.5q43 0 80 7t64.5 26.5t44 53.5t16.5 87q0 39 -17.5 66.5t-47 46t-70.5 31t-86 22.5q-59 12 -113.5 32.5t-96.5 52.5t-67.5 80t-25.5 120q0 68 26.5 120t72.5 85.5t110.5 51t138.5 17.5
q80 0 144.5 -18.5t99.5 -40.5q39 -23 51 -45.5t12 -44.5q0 -53 -41 -54q-12 0 -24.5 9.5t-28.5 19.5q-47 29 -96 44t-113 15q-198 0 -198 -142q0 -69 57 -96.5t162 -53.5q61 -16 118.5 -38t101.5 -55.5t69.5 -84t25.5 -126.5q0 -152 -103.5 -227.5t-271.5 -75.5
q-86 0 -150.5 20.5t-103.5 43.5q-43 25 -53 44t-10 42z" />
    <glyph glyph-name="t" unicode="t" horiz-adv-x="729" 
d="M147 299v918q0 18 10.5 30.5t28.5 12.5h9q47 0 87 -30t40 -108v-159h290q29 0 39.5 -14.5t10.5 -49.5t-10.5 -49t-39.5 -14h-290v-584q0 -164 133 -164q47 0 81.5 13.5t63.5 35.5q12 10 21.5 15.5t19.5 5.5q41 0 41 -64q0 -27 -27 -51q-33 -29 -89 -51.5t-138 -22.5
q-106 0 -169.5 41t-90.5 113q-14 39 -17.5 85t-3.5 91z" />
    <glyph glyph-name="u" unicode="u" horiz-adv-x="1099" 
d="M143 365v567q0 18 10.5 30.5t28.5 12.5h8q47 0 87 -30t40 -107v-498q0 -125 43 -185.5t164 -60.5q55 0 101.5 13.5t79 34t51 45t18.5 44.5v701q0 18 10.5 30.5t28.5 12.5h8q47 0 87 -30t40 -107v-801q0 -29 -22.5 -40t-63.5 -11t-64.5 11t-23.5 40v53q-18 -18 -45 -39.5
t-63.5 -40t-86 -30t-110.5 -11.5q-119 0 -184.5 38t-97 96.5t-38 128t-6.5 133.5z" />
    <glyph glyph-name="v" unicode="v" horiz-adv-x="931" 
d="M41 930q0 25 29.5 32t52.5 7q61 0 91 -35t52 -107l219 -671l228 657q27 76 49 116t76 40q51 0 51 -37q0 -8 -8 -29l-303 -831q-16 -41 -36 -60.5t-69 -19.5h-6q-53 0 -70.5 24.5t-31.5 65.5l-320 831q-4 12 -4 17z" />
    <glyph glyph-name="w" unicode="w" horiz-adv-x="1390" 
d="M43 928q0 41 78 41q94 0 127 -107l215 -702l207 491l-95 242q-10 27 -10 39q0 25 18.5 31t45.5 6q90 0 125 -99l239 -710l187 671q14 55 35.5 96.5t76.5 41.5q23 0 39.5 -6.5t16.5 -28.5q0 -6 -5 -23l-266 -843q-16 -39 -33.5 -57.5t-58.5 -18.5h-6q-47 0 -63.5 20.5
t-30.5 59.5l-160 436l-190 -440q-18 -43 -38 -59.5t-59 -16.5h-6q-27 0 -41 6t-23.5 17.5t-15.5 27.5t-12 35l-291 819q-6 18 -6 31z" />
    <glyph glyph-name="x" unicode="x" horiz-adv-x="894" 
d="M63 18q0 16 11 29l303 432l-285 404q-12 16 -16 27.5t-4 21.5q0 39 73 39q33 0 53.5 -7.5t36 -19.5t27.5 -28.5t25 -36.5l184 -285l184 283q33 49 55.5 71.5t73.5 22.5q31 0 42.5 -9.5t11.5 -21.5q0 -10 -9 -27l-280 -415l276 -424q12 -18 16.5 -31.5t4.5 -24.5
q0 -25 -27.5 -28.5t-50.5 -3.5q-33 0 -53.5 7t-34.5 20.5t-25.5 31.5t-23.5 39l-182 295l-203 -305q-16 -25 -27.5 -41.5t-25 -27.5t-30 -15t-40.5 -4q-59 0 -60 32z" />
    <glyph glyph-name="y" unicode="y" horiz-adv-x="950" 
d="M31 -375q0 27 9 44.5t32 17.5q20 0 41.5 -14.5t72.5 -14.5q35 0 65 13.5t56.5 45t53 84t55.5 127.5l28 74q-29 10 -40 26.5t-21 43.5l-328 841q-4 12 -4 17q0 25 30 32t52 7q61 0 90 -35t53 -107l226 -671l221 657q25 76 47.5 116t75.5 40q23 0 38 -6.5t15 -24.5
q0 -14 -4 -25l-332 -948q-78 -223 -163 -323.5t-210 -100.5q-68 0 -113.5 21.5t-45.5 62.5z" />
    <glyph glyph-name="z" unicode="z" horiz-adv-x="876" 
d="M55 70q0 51 22.5 89t53.5 74l494 607h-508q-47 0 -47 37q0 41 29.5 63t95.5 23h540q43 0 60.5 -19.5t17.5 -50.5q0 -29 -6 -51.5t-29 -50.5l-540 -666h460q66 0 99.5 -18.5t33.5 -69.5q0 -37 -47 -37h-641q-37 0 -62.5 14.5t-25.5 55.5z" />
    <glyph glyph-name="braceleft" unicode="{" horiz-adv-x="649" 
d="M47 596q0 29 6 44t27 19q70 10 103.5 61.5t33.5 151.5v252q0 74 15.5 137.5t50 109.5t91 71.5t140.5 25.5q106 0 107 -90q0 -31 -58 -30q-90 0 -132 -34t-42 -128v-334q0 -92 -38 -156.5t-128 -99.5q90 -35 128 -99.5t38 -156.5v-334q0 -94 42 -128t132 -34q57 0 58 -30
q0 -90 -107 -90q-84 0 -140.5 25.5t-91 71.5t-50 109.5t-15.5 137.5v251q0 100 -33.5 151.5t-103.5 61.5q-20 4 -26.5 19.5t-6.5 44.5z" />
    <glyph glyph-name="bar" unicode="|" horiz-adv-x="530" 
d="M176 -342v1933q0 41 35 41h8q41 0 79 -26.5t38 -100.5v-1847q0 -47 -80 -47q-37 0 -58.5 10t-21.5 37z" />
    <glyph glyph-name="braceright" unicode="}" horiz-adv-x="649" 
d="M29 -186q0 31 57 30q90 0 132 34t42 128v334q0 92 38 156.5t128 99.5q-90 35 -128 99.5t-38 156.5v334q0 94 -42 128t-132 34q-57 0 -57 30q0 90 106 90q82 0 139.5 -25.5t92 -71.5t50 -109.5t15.5 -137.5v-252q0 -100 34 -151t103 -62q20 -4 26.5 -19t6.5 -44t-6 -44
t-27 -20q-70 -10 -103.5 -61t-33.5 -152v-251q0 -74 -15.5 -137.5t-50 -109.5t-92 -71.5t-139.5 -25.5q-106 0 -106 90z" />
    <glyph glyph-name="asciitilde" unicode="~" 
d="M145 1135q0 49 18.5 89t49.5 68.5t72 45t86 16.5q74 0 128 -29t98 -64.5t81 -64.5t74 -29q53 0 84.5 33t42.5 76q6 29 16 45t27 16h4q35 -2 45 -25.5t10 -56.5q0 -49 -19.5 -89t-51 -68.5t-72.5 -45t-86 -16.5q-72 0 -120 29t-87 64.5t-78 64.5t-92 29t-85 -33t-42 -76
q-6 -29 -16.5 -45t-26.5 -16h-4q-35 2 -45.5 25.5t-10.5 56.5z" />
    <glyph glyph-name="uni00A0" unicode="&#xa0;" horiz-adv-x="409" 
 />
    <glyph glyph-name="exclamdown" unicode="&#xa1;" horiz-adv-x="460" 
d="M113 852q0 53 32.5 87t83.5 34q53 0 86 -34t33 -87t-32.5 -89t-86.5 -36q-51 0 -83.5 36t-32.5 89zM143 -297l11 838q0 45 36 45h9q43 0 77.5 -30t36.5 -112l11 -833v-4q-4 -41 -37 -41h-13q-25 0 -48 6t-41.5 21.5t-30 41t-11.5 64.5v4z" />
    <glyph glyph-name="cent" unicode="&#xa2;" 
d="M172 674q0 133 39 224t97.5 149.5t128 87t130.5 39.5v182q0 12 7.5 21t19.5 9h6q35 0 64.5 -21.5t29.5 -80.5v-108q55 -6 106.5 -25.5t100.5 -58.5q37 -31 37 -66q0 -27 -10 -47.5t-33 -20.5q-14 0 -37 21q-39 33 -78 51.5t-86 26.5v-772q66 6 100.5 27.5t71.5 49.5
q27 20 39 21q23 0 33 -20.5t10 -47.5q0 -20 -11 -35.5t-28 -29.5q-37 -29 -90 -51.5t-125 -30.5v-174q0 -37 -63 -37t-64 37v172q-61 6 -130.5 30.5t-128 81t-97.5 152.5t-39 244zM352 676q0 -160 50.5 -260.5t164.5 -124.5v762q-113 -23 -164 -121t-51 -256z" />
    <glyph glyph-name="sterling" unicode="&#xa3;" 
d="M113 659q0 35 11 49.5t46 14.5h94v227q0 104 35 183t93.5 131.5t134 79t159.5 26.5q111 0 182.5 -29.5t124.5 -74.5q39 -35 39 -76q0 -31 -13 -51.5t-38 -20.5q-10 0 -17.5 3t-23.5 18q-25 23 -48.5 42t-51 32.5t-64.5 21.5t-90 8q-49 0 -95 -15.5t-80 -49t-54.5 -90
t-20.5 -136.5v-229h383q35 0 47.5 -14.5t12.5 -49.5q0 -39 -12.5 -54t-47.5 -15h-383v-461h508q59 0 81 -29.5t22 -64.5v-6q0 -29 -33 -29h-750v590h-94q-35 0 -46 15.5t-11 53.5z" />
    <glyph glyph-name="currency" unicode="&#xa4;" 
d="M100 315q0 20 27 47l82 78q-76 111 -76 254q0 145 76 256l-82 78q-27 25 -27 47q0 10 8.5 23.5t19.5 26t25.5 20.5t26.5 8q23 0 47 -25l78 -79q53 37 117.5 57t142.5 20t141.5 -20.5t114.5 -54.5l78 77q25 25 45 25q27 0 54.5 -27.5t27.5 -50.5q0 -20 -27 -47l-81 -78
q76 -111 75 -256q0 -143 -75 -254l81 -78q27 -31 27 -47q0 -10 -8 -23t-20.5 -25.5t-26 -20.5t-25.5 -8q-23 0 -47 24l-80 78q-51 -35 -114.5 -55.5t-139.5 -20.5q-78 0 -142.5 20.5t-115.5 57.5l-80 -80q-25 -25 -47 -24q-12 0 -26.5 8t-25.5 20.5t-19.5 25.5t-8.5 23z
M289 694q0 -141 70.5 -226t205.5 -85t204 85t69 226q0 143 -69 228.5t-204 85.5q-137 0 -206.5 -85t-69.5 -229z" />
    <glyph glyph-name="yen" unicode="&#xa5;" 
d="M90 1323q0 16 18.5 26.5t67.5 10.5q53 0 78 -20.5t45 -61.5l272 -582l258 549q18 39 46 76t81 37q18 0 38 -4t20 -23q0 -10 -6 -24l-306 -619h187q35 0 47 -13t12 -48q0 -39 -12 -53.5t-47 -14.5h-244v-178h244q35 0 47 -13.5t12 -48.5q0 -39 -12 -53t-47 -14h-244v-213
q0 -53 -86 -53q-41 0 -64.5 12t-23.5 41v213h-248q-35 0 -46 14.5t-11 52.5q0 35 11 48.5t46 13.5h248v178h-248q-35 4 -46 16.5t-11 51.5q0 35 11 48t46 13h191l-314 604q-10 20 -10 31z" />
    <glyph glyph-name="brokenbar" unicode="&#xa6;" horiz-adv-x="530" 
d="M176 -342v752q0 47 80 47q37 0 58.5 -10.5t21.5 -36.5v-752q0 -47 -80 -47q-37 0 -58.5 10t-21.5 37zM176 889v702q0 41 35 41h8q41 0 79 -26.5t38 -100.5v-616q0 -27 -21.5 -37t-58.5 -10q-80 0 -80 47z" />
    <glyph glyph-name="section" unicode="&#xa7;" horiz-adv-x="1021" 
d="M127 606q0 43 14.5 80t39 68.5t55 57.5t61.5 44q-68 41 -103.5 101.5t-35.5 146.5q0 68 27.5 122t76.5 92t116.5 58.5t147.5 20.5q84 0 167 -25.5t130 -68.5q20 -18 29.5 -34t9.5 -36q0 -31 -11 -51.5t-38 -20.5q-10 0 -18.5 4t-24.5 17q-41 33 -100.5 60.5t-141.5 27.5
q-123 0 -171 -45t-48 -119q0 -66 58.5 -108t146.5 -80l172 -76q51 -23 90 -46.5t65.5 -54t40 -72t13.5 -96.5q0 -43 -15.5 -80.5t-41 -70.5t-57 -58.5t-62.5 -44.5q61 -41 94 -99t33 -138q0 -68 -27.5 -122t-77 -92t-117 -58.5t-147.5 -20.5q-84 0 -167 25.5t-130 68.5
q-20 18 -29.5 33.5t-9.5 36.5q0 31 11.5 51.5t37.5 20.5q16 0 43 -21q41 -33 100.5 -60.5t141.5 -27.5q123 0 171 45t48 119q0 33 -16 59.5t-44 48t-65 41t-80 39.5l-153 70q-51 23 -90 46.5t-65.5 54t-40 71.5t-13.5 96zM283 623q0 -63 37.5 -97t101.5 -63l194 -90
q123 76 123 184q0 63 -37.5 97t-101.5 63l-197 88q-121 -76 -120 -182z" />
    <glyph glyph-name="dieresis" unicode="&#xa8;" horiz-adv-x="784" 
d="M104 1245q0 47 30 79t75 32t74.5 -32t29.5 -79t-28.5 -77.5t-75.5 -30.5t-76 30.5t-29 77.5zM471 1245q0 47 29.5 79t74.5 32t75 -32t30 -79t-28.5 -77.5t-76.5 -30.5q-47 0 -75.5 30.5t-28.5 77.5z" />
    <glyph glyph-name="copyright" unicode="&#xa9;" horiz-adv-x="1624" 
d="M131 680q0 147 47 277t135 227.5t214 155t286 57.5t285 -57.5t213 -155t134 -227.5t46 -277t-45 -278.5t-132 -229.5t-214 -155.5t-289 -57.5q-160 0 -287 57.5t-214 155.5t-133 229t-46 279zM266 680q0 -127 33 -238.5t100.5 -196.5t170 -134.5t243.5 -49.5t244.5 49.5
t171 134.5t101.5 196.5t34 238.5q0 125 -34 237.5t-102.5 195.5t-172 132t-242.5 49t-241.5 -49t-170 -132t-101.5 -195.5t-34 -237.5zM449 688q0 125 37.5 208t95 132t126 69.5t130.5 20.5q68 0 124 -17.5t109 -58.5q33 -25 33 -57q0 -23 -8.5 -40t-28.5 -17q-6 0 -14.5 5
t-18.5 13q-45 35 -86 50.5t-102 15.5q-129 0 -184.5 -85t-55.5 -239q0 -156 55.5 -243t184.5 -87q39 0 67.5 5.5t50 14.5t39 20.5t37.5 23.5q23 14 35 14q18 0 27.5 -16.5t9.5 -38.5q0 -18 -8 -29.5t-25 -23.5q-41 -31 -100 -52.5t-154 -21.5q-61 0 -127.5 16.5t-122 62.5
t-91 131t-35.5 224z" />
    <glyph glyph-name="ordfeminine" unicode="&#xaa;" horiz-adv-x="909" 
d="M117 1004q0 113 29.5 188.5t75.5 120.5t102.5 64.5t109.5 19.5q41 0 73 -10.5t55.5 -23.5t39 -28.5l25.5 -25.5q8 41 34.5 58t57.5 17h6q14 0 24.5 -9t10.5 -23v-549q0 -49 10 -68.5t37 -25.5q16 -4 23.5 -9.5t7.5 -23.5q0 -25 -32 -30t-56 -5q-41 0 -75 16.5t-48 63.5
q-27 -29 -72 -60.5t-123 -31.5q-66 0 -123 20.5t-100 65.5t-67.5 116.5t-24.5 172.5zM264 1014q0 -59 7.5 -110.5t29 -91.5t60 -62.5t104.5 -22.5q35 0 63.5 10.5t48 25.5t30.5 32.5t11 31.5v392q-14 18 -55 48.5t-106 30.5q-104 0 -148.5 -74.5t-44.5 -209.5z" />
    <glyph glyph-name="guillemotleft" unicode="&#xab;" horiz-adv-x="993" 
d="M113 563q0 35 21.5 65.5t49.5 57.5l224 199q25 23 47 22q23 0 32 -20.5t9 -38.5q0 -25 -9.5 -41t-25.5 -35l-182 -207l182 -219q16 -18 25.5 -34.5t9.5 -41.5q0 -18 -8.5 -37.5t-28.5 -19.5t-47 25l-234 202q-31 27 -48 56.5t-17 66.5zM502 563q0 35 21.5 65.5t49.5 57.5
l224 199q25 23 47 22q23 0 32 -20.5t9 -38.5q0 -25 -9.5 -41t-25.5 -35l-182 -207l182 -219q16 -18 25.5 -34.5t9.5 -41.5q0 -18 -8.5 -37.5t-28.5 -19.5t-47 25l-234 202q-31 27 -48 56.5t-17 66.5z" />
    <glyph glyph-name="logicalnot" unicode="&#xac;" 
d="M160 784q0 45 13 60.5t52 15.5h662q39 0 58.5 -11t19.5 -40v-408q0 -39 -18.5 -52t-61.5 -13q-45 0 -62.5 13t-17.5 52v310h-580q-39 0 -52 15t-13 58z" />
    <glyph glyph-name="uni00AD" unicode="&#xad;" horiz-adv-x="903" 
d="M141 592q0 16 16.5 26.5t45.5 10.5h430q86 0 114.5 -27t28.5 -78q0 -16 -16.5 -26.5t-44.5 -10.5h-430q-86 0 -115 27t-29 78z" />
    <glyph glyph-name="registered" unicode="&#xae;" horiz-adv-x="1624" 
d="M131 680q0 147 47 277t135 227.5t214 155t286 57.5t285 -57.5t213 -155t134 -227.5t46 -277t-45 -278.5t-132 -229.5t-214 -155.5t-289 -57.5q-160 0 -287 57.5t-214 155.5t-133 229t-46 279zM266 680q0 -127 33 -238.5t100.5 -196.5t170 -134.5t243.5 -49.5t244.5 49.5
t171 134.5t101.5 196.5t34 238.5q0 125 -34 237.5t-102.5 195.5t-172 132t-242.5 49t-241.5 -49t-170 -132t-101.5 -195.5t-34 -237.5zM551 295v766q0 18 13.5 29.5t53.5 15.5q16 2 58.5 4t89.5 2q354 0 354 -235q0 -102 -61.5 -162t-140.5 -76l229 -342q4 -8 4 -12
q0 -14 -17.5 -20.5t-41.5 -6.5q-29 0 -55.5 11.5t-45.5 35.5l-205 311h-100v-321q0 -18 -19.5 -25.5t-45.5 -7.5q-29 0 -49.5 7t-20.5 26zM686 715h84q45 0 82 6t64.5 23.5t43 48t15.5 77.5q0 80 -52.5 113t-150.5 33q-31 0 -50.5 -1t-35.5 -5v-295z" />
    <glyph glyph-name="macron" unicode="&#xaf;" horiz-adv-x="753" 
d="M66 1260q0 27 10 37t53 10h428q25 0 47.5 -3.5t41 -11.5t29.5 -25.5t11 -43.5q0 -27 -10 -37t-53 -10h-428q-25 0 -47.5 3t-41 11t-29.5 24.5t-11 45.5z" />
    <glyph glyph-name="degree" unicode="&#xb0;" horiz-adv-x="765" 
d="M109 1149q0 55 20.5 105.5t56 87t86 58t109.5 21.5q63 0 113.5 -21.5t86 -58t54 -87t18.5 -107.5q0 -55 -20.5 -105.5t-56 -87t-86 -58.5t-109.5 -22q-63 0 -113.5 22t-86.5 58.5t-54 87t-18 107.5zM225 1149q0 -72 40 -119t116 -47q72 0 114 47t42 117q0 72 -41 119
t-115 47q-72 0 -114 -47t-42 -117z" />
    <glyph glyph-name="plusminus" unicode="&#xb1;" 
d="M140 692q0 45 13 58.5t52 13.5h270v285q0 39 16.5 52t61.5 13q43 0 60.5 -13.5t17.5 -51.5v-285h270q39 0 52.5 -13.5t13.5 -58.5q0 -43 -13.5 -57t-52.5 -14h-270v-285q0 -39 -17.5 -52.5t-60.5 -13.5q-45 0 -61.5 13.5t-16.5 52.5v285h-270q-39 0 -52 14t-13 57z
M150 82q0 45 13 60.5t52 15.5h678q39 0 52.5 -15.5t13.5 -60.5q0 -43 -13.5 -59.5t-52.5 -16.5h-678q-39 0 -52 16.5t-13 59.5z" />
    <glyph glyph-name="uni00B2" unicode="&#xb2;" horiz-adv-x="679" 
d="M84 1266q0 35 25 57q10 8 30.5 21.5t49 25.5t63.5 20.5t74 8.5q111 0 178 -53.5t67 -171.5q0 -63 -30.5 -124t-74.5 -116t-95.5 -104.5t-91.5 -90.5h235q51 0 70.5 -26.5t19.5 -55.5v-6q0 -25 -29 -24h-397q-33 0 -52.5 14t-19.5 49q0 39 26 65.5t77 75.5q43 43 83 84
t71.5 83t50 85t18.5 86q0 59 -31.5 89t-89.5 30q-47 0 -89 -18.5t-70 -40.5q-6 -4 -12.5 -9.5t-16.5 -5.5q-16 0 -27.5 14.5t-11.5 37.5z" />
    <glyph glyph-name="uni00B3" unicode="&#xb3;" horiz-adv-x="679" 
d="M76 739q0 23 11 37.5t28 14.5q10 0 16 -5.5t12 -9.5q29 -23 71 -40t89 -17q61 0 107.5 27.5t46.5 105.5q0 39 -14.5 63.5t-34 38t-42 17.5t-40.5 4h-62q-37 0 -37 51t37 51h64q39 0 75.5 22.5t36.5 88.5q0 51 -29.5 77.5t-95.5 26.5q-47 0 -89 -19.5t-70 -41.5
q-6 -4 -12.5 -9t-16.5 -5q-16 0 -27.5 14t-11.5 37q0 33 25 55q10 8 30.5 21.5t49 25.5t63.5 20.5t74 8.5q129 0 186 -55.5t57 -143.5q0 -70 -29.5 -108.5t-76.5 -63.5q20 -8 42.5 -21.5t41 -35t30 -51t11.5 -70.5q0 -104 -70.5 -172t-204.5 -68q-84 0 -138 24.5t-79 47.5
t-24 57z" />
    <glyph glyph-name="acute" unicode="&#xb4;" horiz-adv-x="747" 
d="M211 1143q0 14 8 24l133 193q23 33 46.5 52.5t62.5 19.5q12 0 27.5 -5.5t29.5 -13.5t24.5 -19.5t10.5 -23.5q0 -14 -12 -27l-181 -184q-25 -25 -46 -41t-56 -16q-18 0 -32.5 11t-14.5 30z" />
    <glyph glyph-name="uni00B5" unicode="&#xb5;" horiz-adv-x="1107" 
d="M152 -406v1338q0 18 10 30.5t28 12.5h9q47 0 87 -30t40 -107v-551q0 -193 206 -193q55 0 101.5 13.5t79 34t51 45t18.5 44.5v701q0 18 10.5 30.5t28.5 12.5h8q47 0 87 -30t40 -107v-637q0 -66 14.5 -91.5t49.5 -33.5q20 -4 30.5 -11.5t10.5 -31.5q0 -16 -11.5 -25.5
t-27.5 -14.5t-35.5 -6t-36.5 -1q-55 0 -98 23.5t-61 84.5q-18 -18 -43 -40.5t-61 -41t-84 -31t-109 -12.5q-47 0 -92.5 13.5t-73.5 42.5v-431q0 -29 -22.5 -40t-63.5 -11t-65.5 11.5t-24.5 39.5z" />
    <glyph glyph-name="paragraph" unicode="&#xb6;" horiz-adv-x="1173" 
d="M104 948q0 104 34 183t91.5 132.5t135 80t167.5 26.5h381q16 0 35 -2t34 -13.5t24.5 -33t9.5 -57.5v-1469q0 -23 -19.5 -33t-54.5 -10t-56.5 10.5t-21.5 32.5v1434h-178v-1434q0 -23 -19.5 -33t-54.5 -10t-55 10.5t-20 32.5v742h-33q-92 0 -167 32.5t-126 89t-79 131
t-28 158.5z" />
    <glyph glyph-name="periodcentered" unicode="&#xb7;" horiz-adv-x="512" 
d="M152 735q0 53 33.5 90t82.5 37q51 0 85 -37t34 -90t-32.5 -90t-86.5 -37q-51 0 -83.5 37t-32.5 90z" />
    <glyph glyph-name="cedilla" unicode="&#xb8;" horiz-adv-x="743" 
d="M233 -371q0 35 9.5 46.5t54.5 11.5q74 0 74 51q0 25 -7.5 41t-23.5 33q-16 16 -26.5 33.5t-10.5 45.5q0 45 21.5 72t60.5 55h76q-29 -29 -46.5 -49t-17.5 -43q0 -20 11.5 -32.5t27.5 -28.5q25 -20 44.5 -47t19.5 -74q0 -45 -17.5 -79t-45 -55.5t-62.5 -32.5t-70 -11
q-72 0 -72 63z" />
    <glyph glyph-name="uni00B9" unicode="&#xb9;" horiz-adv-x="679" 
d="M70 1210q0 16 12 33t41 35q41 25 81 47.5t83 44.5q23 12 43 21.5t45 9.5q68 0 67 -58v-681q0 -43 -69 -44q-33 0 -53.5 10.5t-20.5 33.5v587q-45 -20 -89 -45.5t-89 -48.5q-14 -6 -24.5 -2t-16.5 14.5t-8 22.5t-2 20z" />
    <glyph glyph-name="ordmasculine" unicode="&#xba;" horiz-adv-x="927" 
d="M117 1014q0 76 22.5 145.5t67.5 122.5t111.5 84t152.5 31q90 0 154.5 -31t106.5 -83t61.5 -120.5t19.5 -144.5t-19.5 -146.5t-61.5 -124t-108.5 -86t-158.5 -32.5t-158.5 30.5t-108.5 84t-61.5 123t-19.5 147.5zM262 1018q0 -53 8.5 -105.5t30 -93.5t59 -66.5t99.5 -25.5
q63 0 103 25.5t63.5 66.5t33 93.5t9.5 105.5t-7.5 104.5t-29 90t-60.5 62t-100 23.5q-59 0 -99 -23.5t-64.5 -62t-35 -90t-10.5 -104.5z" />
    <glyph glyph-name="guillemotright" unicode="&#xbb;" horiz-adv-x="993" 
d="M109 270q0 25 9 41.5t25 34.5l183 219l-183 207q-16 18 -25 34.5t-9 41.5q0 18 9 38.5t32 20.5t47 -22l223 -199q29 -27 50.5 -57.5t21.5 -65.5q0 -37 -17.5 -66.5t-48.5 -56.5l-233 -202q-31 -25 -48 -25q-20 0 -28 19.5t-8 37.5zM498 270q0 25 9 41.5t25 34.5l183 219
l-183 207q-16 18 -25 34.5t-9 41.5q0 18 9 38.5t32 20.5t47 -22l223 -199q29 -27 50.5 -57.5t21.5 -65.5q0 -37 -17.5 -66.5t-48.5 -56.5l-233 -202q-31 -25 -48 -25q-20 0 -28 19.5t-8 37.5z" />
    <glyph glyph-name="onequarter" unicode="&#xbc;" horiz-adv-x="1658" 
d="M72 1210q0 16 12 33t41 35q41 25 81 47.5t83 44.5q23 12 43 21.5t45 9.5q68 0 67 -58v-681q0 -43 -69 -44q-33 0 -53.5 10.5t-20.5 33.5v587q-45 -20 -89 -45.5t-89 -48.5q-14 -6 -24.5 -2t-16.5 14.5t-8 22.5t-2 20zM360 18q0 10 10 31l701 1262q16 31 40.5 58.5
t80.5 27.5q66 0 65 -33q0 -12 -10 -33l-705 -1274q-23 -41 -43 -57t-69 -16q-70 0 -70 34zM997 206q0 35 21.5 69t38.5 63q59 94 127.5 185t134.5 185q16 25 39.5 46.5t52.5 21.5q68 0 68 -58v-448h20q51 0 67.5 -23.5t16.5 -52.5v-6q0 -23 -29 -22h-75v-129q0 -43 -64 -44
q-63 0 -63 44v129h-297q-25 0 -41.5 6t-16.5 34zM1124 270h228v326q-53 -78 -117 -163t-111 -163z" />
    <glyph glyph-name="onehalf" unicode="&#xbd;" horiz-adv-x="1658" 
d="M50 1210q0 16 12 33t41 35q41 25 81 47.5t83 44.5q23 12 43 21.5t45 9.5q68 0 67 -58v-681q0 -43 -69 -44q-33 0 -53.5 10.5t-20.5 33.5v587q-45 -20 -89 -45.5t-89 -48.5q-14 -6 -24.5 -2t-16.5 14.5t-8 22.5t-2 20zM305 18q0 10 10 31l701 1262q16 31 40.5 58.5
t80.5 27.5q66 0 65 -33q0 -12 -10 -33l-705 -1274q-23 -41 -43 -57t-69 -16q-70 0 -70 34zM1032 641q0 35 25 57q10 8 30.5 21.5t49 25.5t63.5 20.5t74 8.5q111 0 178 -53.5t67 -171.5q0 -63 -30.5 -124t-74.5 -116t-95.5 -104.5t-91.5 -90.5h235q51 0 70.5 -26.5
t19.5 -55.5v-6q0 -25 -29 -24h-397q-33 0 -52.5 14t-19.5 49q0 39 26 65.5t77 75.5q43 43 83 84t71.5 83t50 85t18.5 86q0 59 -31.5 89t-89.5 30q-47 0 -89 -18.5t-70 -40.5q-6 -4 -12.5 -9.5t-16.5 -5.5q-16 0 -27.5 14.5t-11.5 37.5z" />
    <glyph glyph-name="threequarters" unicode="&#xbe;" horiz-adv-x="1658" 
d="M123 739q0 23 11 37.5t28 14.5q10 0 16 -5.5t12 -9.5q29 -23 71 -40t89 -17q61 0 107.5 27.5t46.5 105.5q0 39 -14.5 63.5t-34 38t-42 17.5t-40.5 4h-62q-37 0 -37 51t37 51h64q39 0 75.5 22.5t36.5 88.5q0 51 -29.5 77.5t-95.5 26.5q-47 0 -89 -19.5t-70 -41.5
q-6 -4 -12.5 -9t-16.5 -5q-16 0 -27.5 14t-11.5 37q0 33 25 55q10 8 30.5 21.5t49 25.5t63.5 20.5t74 8.5q129 0 186 -55.5t57 -143.5q0 -70 -29.5 -108.5t-76.5 -63.5q20 -8 42.5 -21.5t41 -35t30 -51t11.5 -70.5q0 -104 -70.5 -172t-204.5 -68q-84 0 -138 24.5t-79 47.5
t-24 57zM432 18q0 10 10 31l701 1262q16 31 40.5 58.5t80.5 27.5q66 0 65 -33q0 -12 -10 -33l-705 -1274q-23 -41 -43 -57t-69 -16q-70 0 -70 34zM989 206q0 35 21.5 69t38.5 63q59 94 127.5 185t134.5 185q16 25 39.5 46.5t52.5 21.5q68 0 68 -58v-448h20q51 0 67.5 -23.5
t16.5 -52.5v-6q0 -23 -29 -22h-75v-129q0 -43 -64 -44q-63 0 -63 44v129h-297q-25 0 -41.5 6t-16.5 34zM1116 270h228v326q-53 -78 -117 -163t-111 -163z" />
    <glyph glyph-name="questiondown" unicode="&#xbf;" horiz-adv-x="784" 
d="M23 -96q0 63 21.5 118.5t55 102.5t74.5 90t82 82q55 53 96 105.5t41 117.5v19q0 47 37 47q27 0 45.5 -12.5t28.5 -30t14 -37t4 -33.5q0 -41 -13 -76t-34.5 -65.5t-50.5 -60t-57 -58.5q-33 -33 -63 -62.5t-53.5 -64.5t-36.5 -78t-13 -98q0 -68 20.5 -113t54 -71.5
t77.5 -37t93 -10.5q80 0 147 28t124 75q16 12 24.5 16t18.5 4q25 0 37 -21.5t12 -51.5q0 -39 -41 -74q-14 -12 -43 -30.5t-72 -36t-100 -30t-127 -12.5q-82 0 -154.5 21.5t-128 65.5t-88 112t-32.5 160zM330 848q0 53 33.5 89t87.5 36q49 0 82.5 -36t33.5 -89t-33.5 -90
t-82.5 -37q-53 0 -87 37t-34 90z" />
    <glyph glyph-name="Agrave" unicode="&#xc0;" horiz-adv-x="1273" 
d="M72 23q0 4 4 20l465 1245q23 63 49 75.5t65 12.5q47 0 70 -17.5t41 -68.5l432 -1235q4 -12 4 -20q0 -47 -84 -47q-49 0 -70.5 12t-33.5 49l-111 346h-545l-125 -352q-12 -35 -31.5 -47t-60.5 -12q-70 0 -69 39zM353 1684q0 29 31.5 51t66.5 22q29 0 54.5 -13t58.5 -40
l163 -139q20 -16 21 -43q0 -16 -12.5 -28.5t-40.5 -12.5q-33 -2 -58.5 14.5t-54.5 32.5l-203 119q-27 14 -26 37zM399 512h467l-223 694z" />
    <glyph glyph-name="Aacute" unicode="&#xc1;" horiz-adv-x="1273" 
d="M72 23q0 4 4 20l465 1245q23 63 49 75.5t65 12.5q47 0 70 -17.5t41 -68.5l432 -1235q4 -12 4 -20q0 -47 -84 -47q-49 0 -70.5 12t-33.5 49l-111 346h-545l-125 -352q-12 -35 -31.5 -47t-60.5 -12q-70 0 -69 39zM399 512h467l-223 694zM535 1522q0 25 22 43l164 139
q31 27 57.5 40t55.5 13q35 0 66.5 -22.5t31.5 -50.5q0 -23 -27 -37l-203 -119q-31 -18 -55 -32.5t-57 -14.5q-29 0 -42 12t-13 29z" />
    <glyph glyph-name="Acircumflex" unicode="&#xc2;" horiz-adv-x="1273" 
d="M72 23q0 4 4 20l465 1245q23 63 49 75.5t65 12.5q47 0 70 -17.5t41 -68.5l432 -1235q4 -12 4 -20q0 -47 -84 -47q-49 0 -70.5 12t-33.5 49l-111 346h-545l-125 -352q-12 -35 -31.5 -47t-60.5 -12q-70 0 -69 39zM397 1508q0 16 12 30l137 170q23 29 44.5 45.5t56.5 16.5
t56.5 -13.5t43.5 -42.5l137 -176q12 -18 13 -30q0 -16 -16.5 -23.5t-30.5 -7.5q-25 0 -43.5 10t-42.5 35l-117 113l-117 -113q-25 -25 -43 -35t-43 -10q-14 0 -30.5 7t-16.5 24zM399 512h467l-223 694z" />
    <glyph glyph-name="Atilde" unicode="&#xc3;" horiz-adv-x="1273" 
d="M72 23q0 4 4 20l465 1245q23 63 49 75.5t65 12.5q47 0 70 -17.5t41 -68.5l432 -1235q4 -12 4 -20q0 -47 -84 -47q-49 0 -70.5 12t-33.5 49l-111 346h-545l-125 -352q-12 -35 -31.5 -47t-60.5 -12q-70 0 -69 39zM326 1559q0 27 10 44t33 40q25 25 63.5 46t87.5 21
q45 0 76 -12t57 -25q29 -12 55.5 -23t55.5 -11q41 0 64.5 10t39 22.5t27.5 22.5t31 10q41 0 41 -43q0 -27 -9.5 -44t-31.5 -40q-25 -25 -64 -46t-88 -21q-45 0 -75.5 12t-57.5 24q-29 14 -55.5 24.5t-55.5 10.5q-41 0 -64.5 -10t-38.5 -22.5t-27.5 -22.5t-30.5 -10t-30.5 10
t-12.5 33zM399 512h467l-223 694z" />
    <glyph glyph-name="Adieresis" unicode="&#xc4;" horiz-adv-x="1273" 
d="M72 23q0 4 4 20l465 1245q23 63 49 75.5t65 12.5q47 0 70 -17.5t41 -68.5l432 -1235q4 -12 4 -20q0 -47 -84 -47q-49 0 -70.5 12t-33.5 49l-111 346h-545l-125 -352q-12 -35 -31.5 -47t-60.5 -12q-70 0 -69 39zM344 1606q0 47 30 78.5t75 31.5t74.5 -31.5t29.5 -78.5
t-28.5 -78t-75.5 -31t-76 31t-29 78zM399 512h467l-223 694zM711 1606q0 47 29.5 78.5t74.5 31.5t75 -31.5t30 -78.5t-28.5 -78t-76.5 -31q-47 0 -75.5 31t-28.5 78z" />
    <glyph glyph-name="Aring" unicode="&#xc5;" horiz-adv-x="1273" 
d="M72 23q0 4 4 20l465 1245q4 14 10 25q-53 29 -84 81t-31 117q0 94 58.5 160t158.5 66t158.5 -62t58.5 -162q0 -66 -30.5 -119t-83.5 -81q4 -4 5 -10.5t5 -12.5l432 -1235q4 -12 4 -20q0 -47 -84 -47q-49 0 -69.5 12t-32.5 49l-111 346h-547l-125 -352q-12 -35 -31.5 -47
t-60.5 -12q-70 0 -69 39zM399 512h471l-227 694zM545 1513q0 -55 27.5 -95t80.5 -40t82 39t29 94q0 53 -23.5 96.5t-89.5 43.5q-55 0 -80.5 -42t-25.5 -96z" />
    <glyph glyph-name="AE" unicode="&#xc6;" horiz-adv-x="1777" 
d="M37 13.5q-2 11.5 8 29.5l707 1184q43 72 78.5 107.5t109.5 35.5h721q33 0 33 -29v-6q0 -35 -21.5 -64.5t-81.5 -29.5h-518v-459h420q29 0 42 -15t13 -52q0 -66 -55 -66h-420v-520h549q59 0 80.5 -29.5t21.5 -64.5v-6q0 -29 -32 -29h-680q-68 0 -92.5 14.5t-24.5 46.5v336
h-479l-199 -348q-18 -33 -41.5 -49t-64.5 -16q-16 0 -33 3t-28 9t-13 17.5zM483 514h412v696z" />
    <glyph glyph-name="Ccedilla" unicode="&#xc7;" horiz-adv-x="1220" 
d="M125 680q0 154 36 286t110.5 227t188 149.5t271.5 54.5q117 0 206 -33t155 -86q41 -35 41 -74q0 -31 -12.5 -53.5t-37.5 -22.5q-10 0 -18 3.5t-25 17.5q-51 45 -127.5 81t-181.5 36q-123 0 -204 -49.5t-129 -131t-68.5 -187t-20.5 -216.5q0 -106 18.5 -210.5t67.5 -186.5
t133 -133.5t213 -51.5q94 0 170 36t127 81q16 14 24.5 17.5t18.5 3.5q25 0 37 -22.5t12 -53.5q0 -39 -40 -74q-63 -51 -148.5 -83t-198.5 -36q-14 -20 -14 -43q0 -20 10.5 -32.5t26.5 -28.5q20 -16 42.5 -45t22.5 -74q0 -92 -58 -136t-140 -44q-76 0 -76 63q0 35 9 46.5
t55 11.5q74 0 73 51q0 25 -7 41t-23 33q-16 16 -26.5 33.5t-10.5 45.5q0 41 26 82q-139 12 -238.5 69.5t-164 151t-95 217.5t-30.5 269z" />
    <glyph glyph-name="Egrave" unicode="&#xc8;" horiz-adv-x="1042" 
d="M160 61v1248q0 33 24.5 47t91.5 14h650q33 0 32 -29v-6q0 -35 -21.5 -64.5t-80.5 -29.5h-518v-459h420q29 0 42 -15t13 -52q0 -66 -55 -66h-420v-520h549q59 0 80.5 -29.5t21.5 -64.5v-6q0 -29 -33 -29h-680q-68 0 -92 14.5t-24 46.5zM332 1684q0 29 31.5 51t66.5 22
q29 0 54.5 -13t58.5 -40l163 -139q20 -16 21 -43q0 -16 -12.5 -28.5t-40.5 -12.5q-33 -2 -58.5 14.5t-54.5 32.5l-203 119q-27 14 -26 37z" />
    <glyph glyph-name="Eacute" unicode="&#xc9;" horiz-adv-x="1042" 
d="M160 61v1248q0 33 24.5 47t91.5 14h650q33 0 32 -29v-6q0 -35 -21.5 -64.5t-80.5 -29.5h-518v-459h420q29 0 42 -15t13 -52q0 -66 -55 -66h-420v-520h549q59 0 80.5 -29.5t21.5 -64.5v-6q0 -29 -33 -29h-680q-68 0 -92 14.5t-24 46.5zM412 1522q0 25 22 43l164 139
q31 27 57.5 40t55.5 13q35 0 66.5 -22.5t31.5 -50.5q0 -23 -27 -37l-203 -119q-31 -18 -55 -32.5t-57 -14.5q-29 0 -42 12t-13 29z" />
    <glyph glyph-name="Ecircumflex" unicode="&#xca;" horiz-adv-x="1042" 
d="M160 61v1248q0 33 24.5 47t91.5 14h650q33 0 32 -29v-6q0 -35 -21.5 -64.5t-80.5 -29.5h-518v-459h420q29 0 42 -15t13 -52q0 -66 -55 -66h-420v-520h549q59 0 80.5 -29.5t21.5 -64.5v-6q0 -29 -33 -29h-680q-68 0 -92 14.5t-24 46.5zM324 1508q0 16 12 30l137 170
q23 29 44.5 45.5t56.5 16.5t56.5 -13.5t43.5 -42.5l137 -176q12 -18 13 -30q0 -16 -16.5 -23.5t-30.5 -7.5q-25 0 -43.5 10t-42.5 35l-117 113l-117 -113q-25 -25 -43 -35t-43 -10q-14 0 -30.5 7t-16.5 24z" />
    <glyph glyph-name="Edieresis" unicode="&#xcb;" horiz-adv-x="1042" 
d="M160 61v1248q0 33 24.5 47t91.5 14h650q33 0 32 -29v-6q0 -35 -21.5 -64.5t-80.5 -29.5h-518v-459h420q29 0 42 -15t13 -52q0 -66 -55 -66h-420v-520h549q59 0 80.5 -29.5t21.5 -64.5v-6q0 -29 -33 -29h-680q-68 0 -92 14.5t-24 46.5zM280 1663q0 47 30 79t75 32
t74.5 -32t29.5 -79t-28.5 -77.5t-75.5 -30.5t-76 30.5t-29 77.5zM647 1663q0 47 29.5 79t74.5 32t75 -32t30 -79t-28.5 -77.5t-76.5 -30.5q-47 0 -75.5 30.5t-28.5 77.5z" />
    <glyph glyph-name="Igrave" unicode="&#xcc;" horiz-adv-x="491" 
d="M-30 1684q0 29 31.5 51t66.5 22q29 0 54.5 -13t58.5 -40l163 -139q20 -16 21 -43q0 -16 -12.5 -28.5t-40.5 -12.5q-33 -2 -58.5 14.5t-54.5 32.5l-203 119q-27 14 -26 37zM156 39v1292q0 45 39 45h8q47 0 89 -29.5t42 -111.5v-1196q0 -53 -88 -53q-41 0 -65.5 12
t-24.5 41z" />
    <glyph glyph-name="Iacute" unicode="&#xcd;" horiz-adv-x="491" 
d="M127 1522q0 25 22 43l164 139q31 27 57.5 40t55.5 13q35 0 66.5 -22.5t31.5 -50.5q0 -23 -27 -37l-203 -119q-31 -18 -55 -32.5t-57 -14.5q-29 0 -42 12t-13 29zM156 39v1292q0 45 39 45h8q47 0 89 -29.5t42 -111.5v-1196q0 -53 -88 -53q-41 0 -65.5 12t-24.5 41z" />
    <glyph glyph-name="Icircumflex" unicode="&#xce;" horiz-adv-x="491" 
d="M-14 1508q0 16 12 30l137 170q23 29 44.5 45.5t56.5 16.5t56.5 -13.5t43.5 -42.5l137 -176q12 -18 13 -30q0 -16 -16.5 -23.5t-30.5 -7.5q-25 0 -43.5 10t-42.5 35l-117 113l-117 -113q-25 -25 -43 -35t-43 -10q-14 0 -30.5 7t-16.5 24zM156 39v1292q0 45 39 45h8
q47 0 89 -29.5t42 -111.5v-1196q0 -53 -88 -53q-41 0 -65.5 12t-24.5 41z" />
    <glyph glyph-name="Idieresis" unicode="&#xcf;" horiz-adv-x="491" 
d="M-37 1606q0 47 30 78.5t75 31.5t74.5 -31.5t29.5 -78.5t-28.5 -78t-75.5 -31t-76 31t-29 78zM156 39v1292q0 45 39 45h8q47 0 89 -29.5t42 -111.5v-1196q0 -53 -88 -53q-41 0 -65.5 12t-24.5 41zM330 1606q0 47 29.5 78.5t74.5 31.5t75 -31.5t30 -78.5t-28.5 -78
t-76.5 -31q-47 0 -75.5 31t-28.5 78z" />
    <glyph glyph-name="Eth" unicode="&#xd0;" horiz-adv-x="1316" 
d="M41 715q0 37 13.5 52t41.5 15h86v527q0 41 22.5 50t55.5 13q78 8 143.5 10t124.5 2q197 0 328 -53t210 -145t111.5 -215t32.5 -262q0 -186 -60 -341t-194 -251q-160 -117 -454 -117h-203q-68 0 -92.5 14.5t-24.5 46.5v588h-86q-55 0 -55 66zM360 127h170q133 0 227.5 39
t154 112.5t87 180t27.5 239.5q0 125 -24.5 228.5t-82 177.5t-152.5 115t-235 41q-41 0 -85 -2.5t-87 -8.5v-467h359q29 0 42 -15t13 -52q0 -66 -55 -66h-359v-522z" />
    <glyph glyph-name="Ntilde" unicode="&#xd1;" horiz-adv-x="1351" 
d="M178 35v1282q0 41 19.5 50t52.5 9q45 0 66.5 -15t43.5 -52l664 -1037v1065q0 39 35 39h6q43 0 76 -26.5t33 -98.5v-1210q0 -27 -17.5 -39t-60.5 -12q-66 0 -103 59l-665 1022v-1036q0 -29 -19.5 -39t-54.5 -10t-55.5 10t-20.5 39zM363 1559q0 27 10 44t33 40
q25 25 63.5 46t87.5 21q45 0 76 -12t57 -25q29 -12 55.5 -23t55.5 -11q41 0 64.5 10t39 22.5t27.5 22.5t31 10q41 0 41 -43q0 -27 -9.5 -44t-31.5 -40q-25 -25 -64 -46t-88 -21q-45 0 -75.5 12t-57.5 24q-29 14 -55.5 24.5t-55.5 10.5q-41 0 -64.5 -10t-38.5 -22.5
t-27.5 -22.5t-30.5 -10t-30.5 10t-12.5 33z" />
    <glyph glyph-name="Ograve" unicode="&#xd2;" horiz-adv-x="1431" 
d="M125 690q0 141 35 269t108.5 225.5t187 155t271.5 57.5q154 0 263.5 -55.5t180 -150.5t103.5 -224.5t33 -274.5q0 -147 -34 -278t-105.5 -229.5t-185.5 -157t-273 -58.5q-158 0 -269.5 59.5t-181.5 159t-101.5 230.5t-31.5 272zM313 690q0 -115 20.5 -221.5t68 -189
t124 -133t191.5 -50.5q113 0 190.5 48.5t124.5 130t67.5 189t20.5 226.5q0 113 -20.5 218.5t-66.5 185.5t-121.5 128t-186.5 48q-117 0 -195.5 -46t-127 -125t-69 -184.5t-20.5 -224.5zM469 1684q0 29 31.5 51t66.5 22q29 0 54.5 -13t58.5 -40l163 -139q20 -16 21 -43
q0 -16 -12.5 -28.5t-40.5 -12.5q-33 -2 -58.5 14.5t-54.5 32.5l-203 119q-27 14 -26 37z" />
    <glyph glyph-name="Oacute" unicode="&#xd3;" horiz-adv-x="1431" 
d="M125 690q0 141 35 269t108.5 225.5t187 155t271.5 57.5q154 0 263.5 -55.5t180 -150.5t103.5 -224.5t33 -274.5q0 -147 -34 -278t-105.5 -229.5t-185.5 -157t-273 -58.5q-158 0 -269.5 59.5t-181.5 159t-101.5 230.5t-31.5 272zM313 690q0 -115 20.5 -221.5t68 -189
t124 -133t191.5 -50.5q113 0 190.5 48.5t124.5 130t67.5 189t20.5 226.5q0 113 -20.5 218.5t-66.5 185.5t-121.5 128t-186.5 48q-117 0 -195.5 -46t-127 -125t-69 -184.5t-20.5 -224.5zM621 1522q0 25 22 43l164 139q31 27 57.5 40t55.5 13q35 0 66.5 -22.5t31.5 -50.5
q0 -23 -27 -37l-203 -119q-31 -18 -55 -32.5t-57 -14.5q-29 0 -42 12t-13 29z" />
    <glyph glyph-name="Ocircumflex" unicode="&#xd4;" horiz-adv-x="1431" 
d="M125 690q0 141 35 269t108.5 225.5t187 155t271.5 57.5q154 0 263.5 -55.5t180 -150.5t103.5 -224.5t33 -274.5q0 -147 -34 -278t-105.5 -229.5t-185.5 -157t-273 -58.5q-158 0 -269.5 59.5t-181.5 159t-101.5 230.5t-31.5 272zM313 690q0 -115 20.5 -221.5t68 -189
t124 -133t191.5 -50.5q113 0 190.5 48.5t124.5 130t67.5 189t20.5 226.5q0 113 -20.5 218.5t-66.5 185.5t-121.5 128t-186.5 48q-117 0 -195.5 -46t-127 -125t-69 -184.5t-20.5 -224.5zM481 1508q0 16 12 30l137 170q23 29 44.5 45.5t56.5 16.5t56.5 -13.5t43.5 -42.5
l137 -176q12 -18 13 -30q0 -16 -16.5 -23.5t-30.5 -7.5q-25 0 -43.5 10t-42.5 35l-117 113l-117 -113q-25 -25 -43 -35t-43 -10q-14 0 -30.5 7t-16.5 24z" />
    <glyph glyph-name="Otilde" unicode="&#xd5;" horiz-adv-x="1431" 
d="M125 690q0 141 35 269t108.5 225.5t187 155t271.5 57.5q154 0 263.5 -55.5t180 -150.5t103.5 -224.5t33 -274.5q0 -147 -34 -278t-105.5 -229.5t-185.5 -157t-273 -58.5q-158 0 -269.5 59.5t-181.5 159t-101.5 230.5t-31.5 272zM313 690q0 -115 20.5 -221.5t68 -189
t124 -133t191.5 -50.5q113 0 190.5 48.5t124.5 130t67.5 189t20.5 226.5q0 113 -20.5 218.5t-66.5 185.5t-121.5 128t-186.5 48q-117 0 -195.5 -46t-127 -125t-69 -184.5t-20.5 -224.5zM420 1559q0 27 10 44t33 40q25 25 63.5 46t87.5 21q45 0 76 -12t57 -25
q29 -12 55.5 -23t55.5 -11q41 0 64.5 10t39 22.5t27.5 22.5t31 10q41 0 41 -43q0 -27 -9.5 -44t-31.5 -40q-25 -25 -64 -46t-88 -21q-45 0 -75.5 12t-57.5 24q-29 14 -55.5 24.5t-55.5 10.5q-41 0 -64.5 -10t-38.5 -22.5t-27.5 -22.5t-30.5 -10t-30.5 10t-12.5 33z" />
    <glyph glyph-name="Odieresis" unicode="&#xd6;" horiz-adv-x="1431" 
d="M125 690q0 141 35 269t108.5 225.5t187 155t271.5 57.5q154 0 263.5 -55.5t180 -150.5t103.5 -224.5t33 -274.5q0 -147 -34 -278t-105.5 -229.5t-185.5 -157t-273 -58.5q-158 0 -269.5 59.5t-181.5 159t-101.5 230.5t-31.5 272zM313 690q0 -115 20.5 -221.5t68 -189
t124 -133t191.5 -50.5q113 0 190.5 48.5t124.5 130t67.5 189t20.5 226.5q0 113 -20.5 218.5t-66.5 185.5t-121.5 128t-186.5 48q-117 0 -195.5 -46t-127 -125t-69 -184.5t-20.5 -224.5zM438 1606q0 47 30 78.5t75 31.5t74.5 -31.5t29.5 -78.5t-28.5 -78t-75.5 -31t-76 31
t-29 78zM805 1606q0 47 29.5 78.5t74.5 31.5t75 -31.5t30 -78.5t-28.5 -78t-76.5 -31q-47 0 -75.5 31t-28.5 78z" />
    <glyph glyph-name="multiply" unicode="&#xd7;" horiz-adv-x="1122" 
d="M195.5 981.5q3.5 22.5 33.5 50.5q33 31 52.5 34t46.5 -24l233 -241l234 241q27 27 46 24t52 -34q31 -29 34 -51.5t-24 -48.5l-241 -238l241 -237q27 -27 24 -49.5t-34 -51.5q-33 -31 -52.5 -34t-45.5 24l-234 242l-231 -242q-27 -27 -47.5 -23.5t-53.5 33.5
q-31 29 -32.5 51.5t24.5 49.5l240 237l-242 238q-27 27 -23.5 49.5z" />
    <glyph glyph-name="Oslash" unicode="&#xd8;" horiz-adv-x="1431" 
d="M125 690q0 141 35 269t108.5 225.5t187 155t271.5 57.5q84 0 153.5 -17.5t127.5 -48.5l59 107q16 31 37 30q29 0 59.5 -17t30.5 -40q0 -16 -3 -24.5t-9 -18.5l-66 -117q98 -98 144.5 -242.5t46.5 -316.5q0 -147 -34 -278t-105.5 -229.5t-185.5 -157t-273 -58.5
q-78 0 -143.5 14.5t-121.5 41.5l-67 -125q-16 -31 -39 -31q-10 0 -25.5 4t-30 12.5t-23.5 19.5t-9 23q0 8 2 17.5t10 23.5l72 131q-111 102 -160 257t-49 333zM313 690q0 -123 23.5 -237.5t81.5 -200.5l520 952q-41 31 -94 48.5t-119 17.5q-117 0 -195.5 -46t-127 -125
t-69 -184.5t-20.5 -224.5zM516 154q82 -57 201 -58q113 0 190.5 48.5t124.5 130t67.5 189t20.5 226.5q0 115 -20.5 219.5t-67.5 186.5z" />
    <glyph glyph-name="Ugrave" unicode="&#xd9;" horiz-adv-x="1304" 
d="M152 539v792q0 45 38 45h9q47 0 89 -29.5t42 -111.5v-735q0 -94 15 -168t51 -126t96.5 -80t152.5 -28q141 0 218 56.5t100 169.5q8 35 10 82t2 94v831q0 45 39 45h8q47 0 89 -29.5t42 -111.5v-690q0 -41 -1 -84t-5 -82q-8 -86 -40 -161t-93.5 -130t-152.5 -87t-220 -32
q-221 0 -332.5 98.5t-144.5 272.5q-8 43 -10 94t-2 105zM383 1684q0 29 31.5 51t66.5 22q29 0 54.5 -13t58.5 -40l163 -139q20 -16 21 -43q0 -16 -12.5 -28.5t-40.5 -12.5q-33 -2 -58.5 14.5t-54.5 32.5l-203 119q-27 14 -26 37z" />
    <glyph glyph-name="Uacute" unicode="&#xda;" horiz-adv-x="1304" 
d="M152 539v792q0 45 38 45h9q47 0 89 -29.5t42 -111.5v-735q0 -94 15 -168t51 -126t96.5 -80t152.5 -28q141 0 218 56.5t100 169.5q8 35 10 82t2 94v831q0 45 39 45h8q47 0 89 -29.5t42 -111.5v-690q0 -41 -1 -84t-5 -82q-8 -86 -40 -161t-93.5 -130t-152.5 -87t-220 -32
q-221 0 -332.5 98.5t-144.5 272.5q-8 43 -10 94t-2 105zM506 1522q0 25 22 43l164 139q31 27 57.5 40t55.5 13q35 0 66.5 -22.5t31.5 -50.5q0 -23 -27 -37l-203 -119q-31 -18 -55 -32.5t-57 -14.5q-29 0 -42 12t-13 29z" />
    <glyph glyph-name="Ucircumflex" unicode="&#xdb;" horiz-adv-x="1304" 
d="M152 539v792q0 45 38 45h9q47 0 89 -29.5t42 -111.5v-735q0 -94 15 -168t51 -126t96.5 -80t152.5 -28q141 0 218 56.5t100 169.5q8 35 10 82t2 94v831q0 45 39 45h8q47 0 89 -29.5t42 -111.5v-690q0 -41 -1 -84t-5 -82q-8 -86 -40 -161t-93.5 -130t-152.5 -87t-220 -32
q-221 0 -332.5 98.5t-144.5 272.5q-8 43 -10 94t-2 105zM399 1508q0 16 12 30l137 170q23 29 44.5 45.5t56.5 16.5t56.5 -13.5t43.5 -42.5l137 -176q12 -18 13 -30q0 -16 -16.5 -23.5t-30.5 -7.5q-25 0 -43.5 10t-42.5 35l-117 113l-117 -113q-25 -25 -43 -35t-43 -10
q-14 0 -30.5 7t-16.5 24z" />
    <glyph glyph-name="Udieresis" unicode="&#xdc;" horiz-adv-x="1304" 
d="M152 539v792q0 45 38 45h9q47 0 89 -29.5t42 -111.5v-735q0 -94 15 -168t51 -126t96.5 -80t152.5 -28q141 0 218 56.5t100 169.5q8 35 10 82t2 94v831q0 45 39 45h8q47 0 89 -29.5t42 -111.5v-690q0 -41 -1 -84t-5 -82q-8 -86 -40 -161t-93.5 -130t-152.5 -87t-220 -32
q-221 0 -332.5 98.5t-144.5 272.5q-8 43 -10 94t-2 105zM362 1606q0 47 30 78.5t75 31.5t74.5 -31.5t29.5 -78.5t-28.5 -78t-75.5 -31t-76 31t-29 78zM729 1606q0 47 29.5 78.5t74.5 31.5t75 -31.5t30 -78.5t-28.5 -78t-76.5 -31q-47 0 -75.5 31t-28.5 78z" />
    <glyph glyph-name="Yacute" unicode="&#xdd;" horiz-adv-x="1067" 
d="M33 1341q0 16 19.5 26.5t68.5 10.5q53 0 79.5 -20.5t49.5 -63.5l301 -604l295 572q20 41 49 77.5t82 36.5q18 0 38.5 -4t20.5 -22q0 -10 -8 -25l-399 -747v-539q0 -53 -88 -53q-41 0 -66.5 12t-25.5 41v524l-406 746q-10 20 -10 32zM396 1522q0 25 22 43l164 139
q31 27 57.5 40t55.5 13q35 0 66.5 -22.5t31.5 -50.5q0 -23 -27 -37l-203 -119q-31 -18 -55 -32.5t-57 -14.5q-29 0 -42 12t-13 29z" />
    <glyph glyph-name="Thorn" unicode="&#xde;" horiz-adv-x="1101" 
d="M160 39v1292q0 45 39 45h8q47 0 89 -29.5t42 -111.5v-94q35 2 73 3t72 1q283 0 413 -100.5t130 -299.5q0 -133 -44 -221t-120 -141t-174 -74.5t-205 -21.5h-145v-248q0 -53 -88 -53q-41 0 -65.5 12t-24.5 41zM336 410h82q106 0 185 11t132 47t80 99.5t27 167.5
q0 82 -23.5 137.5t-67.5 89t-107.5 48t-145.5 14.5q-53 0 -91 -2t-71 -6v-606z" />
    <glyph glyph-name="germandbls" unicode="&#xdf;" horiz-adv-x="1165" 
d="M152 0v1049q0 35 3 73.5t7 65.5q31 141 147.5 210.5t276.5 69.5q82 0 149.5 -20.5t116.5 -58t75.5 -91t26.5 -120.5q0 -47 -17 -85t-42 -72t-53.5 -62.5t-53.5 -55.5q-41 -43 -70.5 -87t-29.5 -87q0 -29 12.5 -51.5t35 -41t55 -35.5t73.5 -38q43 -23 83 -47t71 -56
t49 -77t18 -107q0 -131 -87 -218t-263 -87q-86 0 -150.5 20.5t-103.5 43.5q-43 25 -53 44t-10 42q0 59 41 59q12 0 24.5 -9t28.5 -19q43 -29 93 -47.5t122 -18.5q98 0 146.5 46t48.5 128q0 68 -45.5 102.5t-112.5 65.5q-41 18 -81 41t-71.5 53.5t-52 70.5t-20.5 95
q0 88 37.5 143.5t85.5 106.5q20 23 44.5 48.5t44 53t33 58t13.5 63.5q0 96 -54.5 142.5t-156.5 46.5q-137 0 -198.5 -73t-61.5 -214v-1063h-174z" />
    <glyph glyph-name="agrave" unicode="&#xe0;" horiz-adv-x="1087" 
d="M98 465q0 150 38 250t97.5 159.5t133 85t145.5 25.5q53 0 96 -12t75 -29.5t54.5 -37.5t34.5 -34q10 53 43 75t74 22h8q18 0 28.5 -12.5t10.5 -30.5v-725q0 -66 14.5 -91.5t48.5 -33.5q20 -4 30.5 -11.5t10.5 -31.5q0 -16 -11 -25.5t-27.5 -14.5t-36 -6t-35.5 -1
q-55 0 -97 20.5t-61 81.5q-18 -18 -42.5 -38.5t-56.5 -38t-73 -30t-92 -12.5q-86 0 -161 28t-130 87t-87 153.5t-32 227.5zM283 479q0 -78 10 -147.5t38.5 -122.5t82 -85t137.5 -32q45 0 84 13.5t67.5 33t44 42t15.5 42.5v539q-10 12 -29.5 29.5t-47.5 34t-64.5 27.5
t-79.5 11q-137 0 -197.5 -102.5t-60.5 -282.5zM313 1370q0 12 10.5 23.5t25 19.5t29.5 13.5t28 5.5q39 0 62.5 -19.5t45.5 -52.5l133 -193q8 -10 8 -24q0 -18 -14 -29.5t-33 -11.5q-35 0 -56.5 16.5t-45.5 40.5l-180 184q-12 12 -13 27z" />
    <glyph glyph-name="aacute" unicode="&#xe1;" horiz-adv-x="1087" 
d="M98 465q0 150 38 250t97.5 159.5t133 85t145.5 25.5q53 0 96 -12t75 -29.5t54.5 -37.5t34.5 -34q10 53 43 75t74 22h8q18 0 28.5 -12.5t10.5 -30.5v-725q0 -66 14.5 -91.5t48.5 -33.5q20 -4 30.5 -11.5t10.5 -31.5q0 -16 -11 -25.5t-27.5 -14.5t-36 -6t-35.5 -1
q-55 0 -97 20.5t-61 81.5q-18 -18 -42.5 -38.5t-56.5 -38t-73 -30t-92 -12.5q-86 0 -161 28t-130 87t-87 153.5t-32 227.5zM283 479q0 -78 10 -147.5t38.5 -122.5t82 -85t137.5 -32q45 0 84 13.5t67.5 33t44 42t15.5 42.5v539q-10 12 -29.5 29.5t-47.5 34t-64.5 27.5
t-79.5 11q-137 0 -197.5 -102.5t-60.5 -282.5zM430 1143q0 14 8 24l133 193q23 33 46.5 52.5t62.5 19.5q12 0 27.5 -5.5t29.5 -13.5t24.5 -19.5t10.5 -23.5q0 -14 -12 -27l-181 -184q-25 -25 -46 -41t-56 -16q-18 0 -32.5 11t-14.5 30z" />
    <glyph glyph-name="acircumflex" unicode="&#xe2;" horiz-adv-x="1087" 
d="M98 465q0 150 38 250t97.5 159.5t133 85t145.5 25.5q53 0 96 -12t75 -29.5t54.5 -37.5t34.5 -34q10 53 43 75t74 22h8q18 0 28.5 -12.5t10.5 -30.5v-725q0 -66 14.5 -91.5t48.5 -33.5q20 -4 30.5 -11.5t10.5 -31.5q0 -16 -11 -25.5t-27.5 -14.5t-36 -6t-35.5 -1
q-55 0 -97 20.5t-61 81.5q-18 -18 -42.5 -38.5t-56.5 -38t-73 -30t-92 -12.5q-86 0 -161 28t-130 87t-87 153.5t-32 227.5zM283 479q0 -78 10 -147.5t38.5 -122.5t82 -85t137.5 -32q45 0 84 13.5t67.5 33t44 42t15.5 42.5v539q-10 12 -29.5 29.5t-47.5 34t-64.5 27.5
t-79.5 11q-137 0 -197.5 -102.5t-60.5 -282.5zM295 1126q0 12 12 31l146 203q20 29 43.5 45t56.5 16t53.5 -12t42.5 -43l148 -209q12 -18 12 -31q0 -16 -14.5 -23t-34.5 -7q-27 0 -43 13t-35 34l-131 139l-129 -141q-16 -18 -34.5 -31.5t-43.5 -13.5q-20 0 -34.5 7t-14.5 23
z" />
    <glyph glyph-name="atilde" unicode="&#xe3;" horiz-adv-x="1087" 
d="M98 465q0 150 38 250t97.5 159.5t133 85t145.5 25.5q53 0 96 -12t75 -29.5t54.5 -37.5t34.5 -34q10 53 43 75t74 22h8q18 0 28.5 -12.5t10.5 -30.5v-725q0 -66 14.5 -91.5t48.5 -33.5q20 -4 30.5 -11.5t10.5 -31.5q0 -16 -11 -25.5t-27.5 -14.5t-36 -6t-35.5 -1
q-55 0 -97 20.5t-61 81.5q-18 -18 -42.5 -38.5t-56.5 -38t-73 -30t-92 -12.5q-86 0 -161 28t-130 87t-87 153.5t-32 227.5zM238 1182q0 27 9 44t32 40q25 25 62.5 46t84.5 21q43 0 73 -12t56 -25q27 -12 52.5 -23t54.5 -11q39 0 62.5 10t38.5 22.5t27.5 22.5t28.5 10
q39 0 39 -43q0 -27 -9 -44t-30 -40q-25 -25 -62.5 -46t-84.5 -21q-43 0 -72.5 12t-56.5 24q-27 14 -52.5 24.5t-54.5 10.5q-41 0 -63.5 -10t-37.5 -22.5t-27.5 -22.5t-28.5 -10q-41 0 -41 43zM283 479q0 -78 10 -147.5t38.5 -122.5t82 -85t137.5 -32q45 0 84 13.5t67.5 33
t44 42t15.5 42.5v539q-10 12 -29.5 29.5t-47.5 34t-64.5 27.5t-79.5 11q-137 0 -197.5 -102.5t-60.5 -282.5z" />
    <glyph glyph-name="adieresis" unicode="&#xe4;" horiz-adv-x="1087" 
d="M98 465q0 150 38 250t97.5 159.5t133 85t145.5 25.5q53 0 96 -12t75 -29.5t54.5 -37.5t34.5 -34q10 53 43 75t74 22h8q18 0 28.5 -12.5t10.5 -30.5v-725q0 -66 14.5 -91.5t48.5 -33.5q20 -4 30.5 -11.5t10.5 -31.5q0 -16 -11 -25.5t-27.5 -14.5t-36 -6t-35.5 -1
q-55 0 -97 20.5t-61 81.5q-18 -18 -42.5 -38.5t-56.5 -38t-73 -30t-92 -12.5q-86 0 -161 28t-130 87t-87 153.5t-32 227.5zM258 1245q0 47 30 79t75 32t74.5 -32t29.5 -79t-28.5 -77.5t-75.5 -30.5t-76 30.5t-29 77.5zM283 479q0 -78 10 -147.5t38.5 -122.5t82 -85
t137.5 -32q45 0 84 13.5t67.5 33t44 42t15.5 42.5v539q-10 12 -29.5 29.5t-47.5 34t-64.5 27.5t-79.5 11q-137 0 -197.5 -102.5t-60.5 -282.5zM625 1245q0 47 29.5 79t74.5 32t75 -32t30 -79t-28.5 -77.5t-76.5 -30.5q-47 0 -75.5 30.5t-28.5 77.5z" />
    <glyph glyph-name="aring" unicode="&#xe5;" horiz-adv-x="1087" 
d="M98 465q0 150 38 250t97.5 159.5t133 85t145.5 25.5q53 0 96 -12t75 -29.5t54.5 -37.5t34.5 -34q10 53 43 75t74 22h8q18 0 28.5 -12.5t10.5 -30.5v-725q0 -66 14.5 -91.5t48.5 -33.5q20 -4 30.5 -11.5t10.5 -31.5q0 -16 -11 -25.5t-27.5 -14.5t-36 -6t-35.5 -1
q-55 0 -97 20.5t-61 81.5q-18 -18 -42.5 -38.5t-56.5 -38t-73 -30t-92 -12.5q-86 0 -161 28t-130 87t-87 153.5t-32 227.5zM283 479q0 -78 10 -147.5t38.5 -122.5t82 -85t137.5 -32q45 0 84 13.5t67.5 33t44 42t15.5 42.5v539q-10 12 -29.5 29.5t-47.5 34t-64.5 27.5
t-79.5 11q-137 0 -197.5 -102.5t-60.5 -282.5zM332 1313q0 94 58 159.5t159 65.5q100 0 158.5 -61.5t58.5 -161.5q0 -92 -58.5 -157.5t-158.5 -65.5q-49 0 -90 17t-69 48t-43 71t-15 85zM440 1315q0 -55 27.5 -95t81.5 -40q53 0 81.5 39t28.5 94q0 53 -23.5 96t-88.5 43
q-55 0 -81 -42t-26 -95z" />
    <glyph glyph-name="ae" unicode="&#xe6;" horiz-adv-x="1669" 
d="M98 465q0 150 38 250t97.5 159.5t133 85t145.5 25.5q53 0 96 -12t75 -29.5t54.5 -37t34.5 -34.5q10 53 43 75t74 22h8q18 0 27.5 -12.5t9.5 -30.5v-62q47 57 115.5 89t144.5 32q102 0 175 -35t120 -95t69.5 -140t22.5 -170q0 -57 -20.5 -71.5t-63.5 -14.5h-559
q4 -182 76 -278.5t219 -96.5q51 0 88 7t65.5 18.5t49 26t37.5 26.5q27 20 40 20q23 0 32 -20.5t9 -46.5q0 -20 -11 -34.5t-27 -29.5q-47 -37 -121 -59.5t-178 -22.5q-127 0 -221.5 39t-155.5 129q-53 -70 -131 -119t-201 -49q-86 0 -161 28t-130 87t-87 153.5t-32 227.5z
M283 479q0 -78 10 -147.5t38.5 -122.5t82 -85t137.5 -32q96 0 153.5 47t57.5 105v518q-10 12 -29.5 29.5t-47.5 34t-64.5 27.5t-79.5 11q-137 0 -197.5 -102.5t-60.5 -282.5zM938 569h473q2 63 -9 119.5t-38 96.5t-71 63.5t-107 23.5q-117 0 -178.5 -79.5t-69.5 -223.5z" />
    <glyph glyph-name="ccedilla" unicode="&#xe7;" horiz-adv-x="937" 
d="M98 479q0 152 49.5 250t120 154.5t150.5 79t139 22.5q76 0 142.5 -19.5t127.5 -68.5q37 -31 37 -66q0 -27 -10 -47t-33 -20q-14 0 -37 20q-49 41 -99 61.5t-120 20.5q-152 0 -219 -102t-67 -283q0 -182 68.5 -287.5t219.5 -105.5q47 0 80 6t58.5 17.5t45 26t42.5 30.5
q27 20 38 20q23 0 33 -20.5t10 -46.5q0 -20 -11 -35.5t-27 -30.5q-45 -35 -109.5 -58.5t-161.5 -27.5q-16 -23 -16 -43t11 -32.5t28 -28.5q25 -20 44 -47t19 -74q0 -45 -17.5 -79t-45 -55.5t-62 -32.5t-69.5 -11q-72 0 -72 63q0 35 9 46.5t55 11.5q74 0 73 51q0 25 -7 41
t-23 33q-16 16 -26.5 33.5t-10.5 45.5q0 47 28 82q-61 6 -128.5 33t-124 83t-94.5 150.5t-38 239.5z" />
    <glyph glyph-name="egrave" unicode="&#xe8;" horiz-adv-x="1009" 
d="M98 489q0 129 38 223.5t99.5 155t140.5 89t159 28.5q102 0 174.5 -35t120 -95t70 -140t22.5 -170q0 -57 -20.5 -71.5t-63.5 -14.5h-559q4 -182 75.5 -278.5t218.5 -96.5q51 0 88 7t66 18.5t49.5 26t36.5 26.5q27 20 41 20q23 0 32 -20.5t9 -46.5q0 -20 -11.5 -34.5
t-27.5 -29.5q-47 -37 -120.5 -59.5t-178.5 -22.5q-94 0 -177 28t-145.5 89t-99.5 160.5t-37 242.5zM279 569h473q2 63 -9.5 119.5t-38 96.5t-70.5 63.5t-108 23.5q-117 0 -178 -79.5t-69 -223.5zM282 1370q0 12 10.5 23.5t25 19.5t29.5 13.5t28 5.5q39 0 62.5 -19.5
t45.5 -52.5l133 -193q8 -10 8 -24q0 -18 -14 -29.5t-33 -11.5q-35 0 -56.5 16.5t-45.5 40.5l-180 184q-12 12 -13 27z" />
    <glyph glyph-name="eacute" unicode="&#xe9;" horiz-adv-x="1009" 
d="M98 489q0 129 38 223.5t99.5 155t140.5 89t159 28.5q102 0 174.5 -35t120 -95t70 -140t22.5 -170q0 -57 -20.5 -71.5t-63.5 -14.5h-559q4 -182 75.5 -278.5t218.5 -96.5q51 0 88 7t66 18.5t49.5 26t36.5 26.5q27 20 41 20q23 0 32 -20.5t9 -46.5q0 -20 -11.5 -34.5
t-27.5 -29.5q-47 -37 -120.5 -59.5t-178.5 -22.5q-94 0 -177 28t-145.5 89t-99.5 160.5t-37 242.5zM279 569h473q2 63 -9.5 119.5t-38 96.5t-70.5 63.5t-108 23.5q-117 0 -178 -79.5t-69 -223.5zM416 1143q0 14 8 24l133 193q23 33 46.5 52.5t62.5 19.5q12 0 27.5 -5.5
t29.5 -13.5t24.5 -19.5t10.5 -23.5q0 -14 -12 -27l-181 -184q-25 -25 -46 -41t-56 -16q-18 0 -32.5 11t-14.5 30z" />
    <glyph glyph-name="ecircumflex" unicode="&#xea;" horiz-adv-x="1009" 
d="M98 489q0 129 38 223.5t99.5 155t140.5 89t159 28.5q102 0 174.5 -35t120 -95t70 -140t22.5 -170q0 -57 -20.5 -71.5t-63.5 -14.5h-559q4 -182 75.5 -278.5t218.5 -96.5q51 0 88 7t66 18.5t49.5 26t36.5 26.5q27 20 41 20q23 0 32 -20.5t9 -46.5q0 -20 -11.5 -34.5
t-27.5 -29.5q-47 -37 -120.5 -59.5t-178.5 -22.5q-94 0 -177 28t-145.5 89t-99.5 160.5t-37 242.5zM270 1126q0 12 12 31l146 203q20 29 43.5 45t56.5 16t53.5 -12t42.5 -43l148 -209q12 -18 12 -31q0 -16 -14.5 -23t-34.5 -7q-27 0 -43 13t-35 34l-131 139l-129 -141
q-16 -18 -34.5 -31.5t-43.5 -13.5q-20 0 -34.5 7t-14.5 23zM279 569h473q2 63 -9.5 119.5t-38 96.5t-70.5 63.5t-108 23.5q-117 0 -178 -79.5t-69 -223.5z" />
    <glyph glyph-name="edieresis" unicode="&#xeb;" horiz-adv-x="1009" 
d="M98 489q0 129 38 223.5t99.5 155t140.5 89t159 28.5q102 0 174.5 -35t120 -95t70 -140t22.5 -170q0 -57 -20.5 -71.5t-63.5 -14.5h-559q4 -182 75.5 -278.5t218.5 -96.5q51 0 88 7t66 18.5t49.5 26t36.5 26.5q27 20 41 20q23 0 32 -20.5t9 -46.5q0 -20 -11.5 -34.5
t-27.5 -29.5q-47 -37 -120.5 -59.5t-178.5 -22.5q-94 0 -177 28t-145.5 89t-99.5 160.5t-37 242.5zM256 1245q0 47 30 79t75 32t74.5 -32t29.5 -79t-28.5 -77.5t-75.5 -30.5t-76 30.5t-29 77.5zM279 569h473q2 63 -9.5 119.5t-38 96.5t-70.5 63.5t-108 23.5
q-117 0 -178 -79.5t-69 -223.5zM623 1245q0 47 29.5 79t74.5 32t75 -32t30 -79t-28.5 -77.5t-76.5 -30.5q-47 0 -75.5 30.5t-28.5 77.5z" />
    <glyph glyph-name="igrave" unicode="&#xec;" horiz-adv-x="493" 
d="M-19 1370q0 12 10.5 23.5t25 19.5t29.5 13.5t28 5.5q39 0 62.5 -19.5t45.5 -52.5l133 -193q8 -10 8 -24q0 -18 -14 -29.5t-33 -11.5q-35 0 -56.5 16.5t-45.5 40.5l-180 184q-12 12 -13 27zM150 190v742q0 18 10 30.5t28 12.5h9q47 0 87 -30t40 -107v-635q0 -66 14 -92.5
t55 -36.5q23 -4 32 -11.5t9 -27.5q0 -35 -37 -42t-78 -7q-74 0 -121.5 42t-47.5 162z" />
    <glyph glyph-name="iacute" unicode="&#xed;" horiz-adv-x="493" 
d="M141 1143q0 14 8 24l133 193q23 33 46.5 52.5t62.5 19.5q12 0 27.5 -5.5t29.5 -13.5t24.5 -19.5t10.5 -23.5q0 -14 -12 -27l-181 -184q-25 -25 -46 -41t-56 -16q-18 0 -32.5 11t-14.5 30zM150 190v742q0 18 10 30.5t28 12.5h9q47 0 87 -30t40 -107v-635q0 -66 14 -92.5
t55 -36.5q23 -4 32 -11.5t9 -27.5q0 -35 -37 -42t-78 -7q-74 0 -121.5 42t-47.5 162z" />
    <glyph glyph-name="icircumflex" unicode="&#xee;" horiz-adv-x="493" 
d="M-25 1126q0 12 12 31l146 203q20 29 43.5 45t56.5 16t53.5 -12t42.5 -43l148 -209q12 -18 12 -31q0 -16 -14.5 -23t-34.5 -7q-27 0 -43 13t-35 34l-131 139l-129 -141q-16 -18 -34.5 -31.5t-43.5 -13.5q-20 0 -34.5 7t-14.5 23zM150 190v742q0 18 10 30.5t28 12.5h9
q47 0 87 -30t40 -107v-635q0 -66 14 -92.5t55 -36.5q23 -4 32 -11.5t9 -27.5q0 -35 -37 -42t-78 -7q-74 0 -121.5 42t-47.5 162z" />
    <glyph glyph-name="idieresis" unicode="&#xef;" horiz-adv-x="493" 
d="M-48 1245q0 47 30 79t75 32t74.5 -32t29.5 -79t-28.5 -77.5t-75.5 -30.5t-76 30.5t-29 77.5zM150 190v742q0 18 10 30.5t28 12.5h9q47 0 87 -30t40 -107v-635q0 -66 14 -92.5t55 -36.5q23 -4 32 -11.5t9 -27.5q0 -35 -37 -42t-78 -7q-74 0 -121.5 42t-47.5 162zM319 1245
q0 47 29.5 79t74.5 32t75 -32t30 -79t-28.5 -77.5t-76.5 -30.5q-47 0 -75.5 30.5t-28.5 77.5z" />
    <glyph glyph-name="eth" unicode="&#xf0;" horiz-adv-x="1128" 
d="M117 440q0 90 25.5 173t75.5 146.5t124 101.5t172 38q113 0 185.5 -37t109.5 -69q-20 90 -61 177t-107 158l-192 -106q-23 -12 -33 -12q-12 0 -21.5 9t-21.5 30q-14 23 -15 41q0 20 31 38l150 82q-49 29 -106.5 46.5t-125.5 21.5q-37 2 -52 11t-15 32q0 51 32.5 63.5
t77.5 12.5q43 0 90 -11q55 -12 112.5 -38.5t115.5 -67.5l186 104q20 12 33 13q12 0 21.5 -9.5t21.5 -29.5q14 -27 14 -43q0 -18 -31 -37l-149 -82q102 -106 169.5 -265t67.5 -376q0 -283 -110.5 -434.5t-339.5 -151.5q-92 0 -172 30t-138.5 88t-91 147.5t-32.5 205.5z
M297 438q0 -180 67.5 -264t180.5 -84q88 0 144 39t88 100.5t43 138t11 154.5q0 41 -2 77t-6 60q-12 12 -36.5 34t-60.5 41.5t-82 33.5t-103 14q-66 0 -112 -28.5t-75.5 -75.5t-43 -109.5t-13.5 -130.5z" />
    <glyph glyph-name="ntilde" unicode="&#xf1;" horiz-adv-x="1112" 
d="M152 37v889q0 18 10 30.5t28 12.5h9q43 0 76.5 -23.5t41.5 -81.5q47 47 128 84t192 37q139 0 213 -61.5t96 -153.5q10 -41 12.5 -91t2.5 -97v-545q0 -29 -23 -40t-64 -11t-64.5 11t-23.5 40v579q0 119 -44 181.5t-160 62.5q-59 0 -106.5 -12t-80.5 -32.5t-51 -47.5
t-18 -53v-678q0 -29 -22.5 -40t-63.5 -11t-64.5 11t-23.5 40zM271 1182q0 27 9 44t32 40q25 25 62.5 46t84.5 21q43 0 73 -12t56 -25q27 -12 52.5 -23t54.5 -11q39 0 62.5 10t38.5 22.5t27.5 22.5t28.5 10q39 0 39 -43q0 -27 -9 -44t-30 -40q-25 -25 -62.5 -46t-84.5 -21
q-43 0 -72.5 12t-56.5 24q-27 14 -52.5 24.5t-54.5 10.5q-41 0 -63.5 -10t-37.5 -22.5t-27.5 -22.5t-28.5 -10q-41 0 -41 43z" />
    <glyph glyph-name="ograve" unicode="&#xf2;" horiz-adv-x="1097" 
d="M98 479q0 102 29 194.5t86 161t142 109.5t200 41q119 0 204 -41t138 -109.5t77.5 -159t24.5 -190.5t-24.5 -193t-78.5 -165t-140 -115t-209 -43t-208 41t-138.5 110.5t-78 163t-24.5 195.5zM281 485q0 -72 10 -143.5t39.5 -127.5t80 -92t130.5 -36q82 0 135 36t84 92
t43 127.5t12 143.5t-10 140.5t-38 123t-78 87t-132 32.5q-78 0 -131 -32.5t-85 -87t-46 -123t-14 -140.5zM317 1370q0 12 10.5 23.5t25 19.5t29.5 13.5t28 5.5q39 0 62.5 -19.5t45.5 -52.5l133 -193q8 -10 8 -24q0 -18 -14 -29.5t-33 -11.5q-35 0 -56.5 16.5t-45.5 40.5
l-180 184q-12 12 -13 27z" />
    <glyph glyph-name="oacute" unicode="&#xf3;" horiz-adv-x="1097" 
d="M98 479q0 102 29 194.5t86 161t142 109.5t200 41q119 0 204 -41t138 -109.5t77.5 -159t24.5 -190.5t-24.5 -193t-78.5 -165t-140 -115t-209 -43t-208 41t-138.5 110.5t-78 163t-24.5 195.5zM281 485q0 -72 10 -143.5t39.5 -127.5t80 -92t130.5 -36q82 0 135 36t84 92
t43 127.5t12 143.5t-10 140.5t-38 123t-78 87t-132 32.5q-78 0 -131 -32.5t-85 -87t-46 -123t-14 -140.5zM467 1143q0 14 8 24l133 193q23 33 46.5 52.5t62.5 19.5q12 0 27.5 -5.5t29.5 -13.5t24.5 -19.5t10.5 -23.5q0 -14 -12 -27l-181 -184q-25 -25 -46 -41t-56 -16
q-18 0 -32.5 11t-14.5 30z" />
    <glyph glyph-name="ocircumflex" unicode="&#xf4;" horiz-adv-x="1097" 
d="M98 479q0 102 29 194.5t86 161t142 109.5t200 41q119 0 204 -41t138 -109.5t77.5 -159t24.5 -190.5t-24.5 -193t-78.5 -165t-140 -115t-209 -43t-208 41t-138.5 110.5t-78 163t-24.5 195.5zM281 485q0 -72 10 -143.5t39.5 -127.5t80 -92t130.5 -36q82 0 135 36t84 92
t43 127.5t12 143.5t-10 140.5t-38 123t-78 87t-132 32.5q-78 0 -131 -32.5t-85 -87t-46 -123t-14 -140.5zM309 1126q0 12 12 31l146 203q20 29 43.5 45t56.5 16t53.5 -12t42.5 -43l148 -209q12 -18 12 -31q0 -16 -14.5 -23t-34.5 -7q-27 0 -43 13t-35 34l-131 139l-129 -141
q-16 -18 -34.5 -31.5t-43.5 -13.5q-20 0 -34.5 7t-14.5 23z" />
    <glyph glyph-name="otilde" unicode="&#xf5;" horiz-adv-x="1097" 
d="M98 479q0 102 29 194.5t86 161t142 109.5t200 41q119 0 204 -41t138 -109.5t77.5 -159t24.5 -190.5t-24.5 -193t-78.5 -165t-140 -115t-209 -43t-208 41t-138.5 110.5t-78 163t-24.5 195.5zM244 1182q0 27 9 44t32 40q25 25 62.5 46t84.5 21q43 0 73 -12t56 -25
q27 -12 52.5 -23t54.5 -11q39 0 62.5 10t38.5 22.5t27.5 22.5t28.5 10q39 0 39 -43q0 -27 -9 -44t-30 -40q-25 -25 -62.5 -46t-84.5 -21q-43 0 -72.5 12t-56.5 24q-27 14 -52.5 24.5t-54.5 10.5q-41 0 -63.5 -10t-37.5 -22.5t-27.5 -22.5t-28.5 -10q-41 0 -41 43zM281 485
q0 -72 10 -143.5t39.5 -127.5t80 -92t130.5 -36q82 0 135 36t84 92t43 127.5t12 143.5t-10 140.5t-38 123t-78 87t-132 32.5q-78 0 -131 -32.5t-85 -87t-46 -123t-14 -140.5z" />
    <glyph glyph-name="odieresis" unicode="&#xf6;" horiz-adv-x="1097" 
d="M98 479q0 102 29 194.5t86 161t142 109.5t200 41q119 0 204 -41t138 -109.5t77.5 -159t24.5 -190.5t-24.5 -193t-78.5 -165t-140 -115t-209 -43t-208 41t-138.5 110.5t-78 163t-24.5 195.5zM276 1245q0 47 30 79t75 32t74.5 -32t29.5 -79t-28.5 -77.5t-75.5 -30.5
t-76 30.5t-29 77.5zM281 485q0 -72 10 -143.5t39.5 -127.5t80 -92t130.5 -36q82 0 135 36t84 92t43 127.5t12 143.5t-10 140.5t-38 123t-78 87t-132 32.5q-78 0 -131 -32.5t-85 -87t-46 -123t-14 -140.5zM643 1245q0 47 29.5 79t74.5 32t75 -32t30 -79t-28.5 -77.5
t-76.5 -30.5q-47 0 -75.5 30.5t-28.5 77.5z" />
    <glyph glyph-name="divide" unicode="&#xf7;" horiz-adv-x="1120" 
d="M143 692q0 45 13.5 62.5t52.5 17.5h690q39 0 52.5 -17.5t13.5 -62.5q0 -43 -13.5 -61.5t-52.5 -18.5h-690q-39 0 -52.5 18.5t-13.5 61.5zM444 387q0 47 31 82t78 35t79 -35t32 -82q0 -49 -31 -84t-78 -35t-79 35t-32 84zM444 993q0 49 31 84t78 35t79 -35t32 -84t-31 -84
t-78 -35t-79 35t-32 84z" />
    <glyph glyph-name="oslash" unicode="&#xf8;" horiz-adv-x="1097" 
d="M98 479q0 102 29 194.5t86 161t142 109.5t200 41q111 0 199 -39l39 70q20 33 38 33q16 0 43 -15q39 -20 39 -47q0 -10 -5 -21.5t-11 -23.5l-39 -65q74 -72 107.5 -173.5t33.5 -218.5q0 -100 -24.5 -193t-78.5 -165t-140 -115t-209 -43q-53 0 -100.5 8.5t-88.5 24.5
l-47 -84q-10 -16 -17 -25.5t-20 -9.5q-10 0 -43 17q-39 20 -38 45q0 16 16 45l43 76q-82 72 -118 179t-36 234zM281 485q0 -74 11 -146.5t40 -129.5l358 627q-55 32 -133 32t-131 -32.5t-85 -87t-46 -123t-14 -140.5zM422 113q53 -27 119 -27q82 0 135 36t84 92t43 127.5
t12 143.5q0 66 -8 129.5t-31 116.5z" />
    <glyph glyph-name="ugrave" unicode="&#xf9;" horiz-adv-x="1099" 
d="M143 365v567q0 18 10.5 30.5t28.5 12.5h8q47 0 87 -30t40 -107v-498q0 -125 43 -185.5t164 -60.5q55 0 101.5 13.5t79 34t51 45t18.5 44.5v701q0 18 10.5 30.5t28.5 12.5h8q47 0 87 -30t40 -107v-801q0 -29 -22.5 -40t-63.5 -11t-64.5 11t-23.5 40v53q-18 -18 -45 -39.5
t-63.5 -40t-86 -30t-110.5 -11.5q-119 0 -184.5 38t-97 96.5t-38 128t-6.5 133.5zM288 1370q0 12 10.5 23.5t25 19.5t29.5 13.5t28 5.5q39 0 62.5 -19.5t45.5 -52.5l133 -193q8 -10 8 -24q0 -18 -14 -29.5t-33 -11.5q-35 0 -56.5 16.5t-45.5 40.5l-180 184q-12 12 -13 27z
" />
    <glyph glyph-name="uacute" unicode="&#xfa;" horiz-adv-x="1099" 
d="M143 365v567q0 18 10.5 30.5t28.5 12.5h8q47 0 87 -30t40 -107v-498q0 -125 43 -185.5t164 -60.5q55 0 101.5 13.5t79 34t51 45t18.5 44.5v701q0 18 10.5 30.5t28.5 12.5h8q47 0 87 -30t40 -107v-801q0 -29 -22.5 -40t-63.5 -11t-64.5 11t-23.5 40v53q-18 -18 -45 -39.5
t-63.5 -40t-86 -30t-110.5 -11.5q-119 0 -184.5 38t-97 96.5t-38 128t-6.5 133.5zM453 1143q0 14 8 24l133 193q23 33 46.5 52.5t62.5 19.5q12 0 27.5 -5.5t29.5 -13.5t24.5 -19.5t10.5 -23.5q0 -14 -12 -27l-181 -184q-25 -25 -46 -41t-56 -16q-18 0 -32.5 11t-14.5 30z
" />
    <glyph glyph-name="ucircumflex" unicode="&#xfb;" horiz-adv-x="1099" 
d="M143 365v567q0 18 10.5 30.5t28.5 12.5h8q47 0 87 -30t40 -107v-498q0 -125 43 -185.5t164 -60.5q55 0 101.5 13.5t79 34t51 45t18.5 44.5v701q0 18 10.5 30.5t28.5 12.5h8q47 0 87 -30t40 -107v-801q0 -29 -22.5 -40t-63.5 -11t-64.5 11t-23.5 40v53q-18 -18 -45 -39.5
t-63.5 -40t-86 -30t-110.5 -11.5q-119 0 -184.5 38t-97 96.5t-38 128t-6.5 133.5zM283 1126q0 12 12 31l146 203q20 29 43.5 45t56.5 16t53.5 -12t42.5 -43l148 -209q12 -18 12 -31q0 -16 -14.5 -23t-34.5 -7q-27 0 -43 13t-35 34l-131 139l-129 -141q-16 -18 -34.5 -31.5
t-43.5 -13.5q-20 0 -34.5 7t-14.5 23z" />
    <glyph glyph-name="udieresis" unicode="&#xfc;" horiz-adv-x="1099" 
d="M143 365v567q0 18 10.5 30.5t28.5 12.5h8q47 0 87 -30t40 -107v-498q0 -125 43 -185.5t164 -60.5q55 0 101.5 13.5t79 34t51 45t18.5 44.5v701q0 18 10.5 30.5t28.5 12.5h8q47 0 87 -30t40 -107v-801q0 -29 -22.5 -40t-63.5 -11t-64.5 11t-23.5 40v53q-18 -18 -45 -39.5
t-63.5 -40t-86 -30t-110.5 -11.5q-119 0 -184.5 38t-97 96.5t-38 128t-6.5 133.5zM254 1245q0 47 30 79t75 32t74.5 -32t29.5 -79t-28.5 -77.5t-75.5 -30.5t-76 30.5t-29 77.5zM621 1245q0 47 29.5 79t74.5 32t75 -32t30 -79t-28.5 -77.5t-76.5 -30.5q-47 0 -75.5 30.5
t-28.5 77.5z" />
    <glyph glyph-name="yacute" unicode="&#xfd;" horiz-adv-x="950" 
d="M31 -375q0 27 9 44.5t32 17.5q20 0 41.5 -14.5t72.5 -14.5q35 0 65 13.5t56.5 45t53 84t55.5 127.5l28 74q-29 10 -40 26.5t-21 43.5l-328 841q-4 12 -4 17q0 25 30 32t52 7q61 0 90 -35t53 -107l226 -671l221 657q25 76 47.5 116t75.5 40q23 0 38 -6.5t15 -24.5
q0 -14 -4 -25l-332 -948q-78 -223 -163 -323.5t-210 -100.5q-68 0 -113.5 21.5t-45.5 62.5zM401 1143q0 14 8 24l133 193q23 33 46.5 52.5t62.5 19.5q12 0 27.5 -5.5t29.5 -13.5t24.5 -19.5t10.5 -23.5q0 -14 -12 -27l-181 -184q-25 -25 -46 -41t-56 -16q-18 0 -32.5 11
t-14.5 30z" />
    <glyph glyph-name="thorn" unicode="&#xfe;" horiz-adv-x="1103" 
d="M152 -406v1817q0 18 10 30.5t28 12.5h9q47 0 87 -29.5t40 -107.5v-436q41 41 108.5 72.5t171.5 31.5q80 0 150.5 -26.5t125 -85t86 -151.5t31.5 -228q0 -154 -37.5 -255.5t-98 -161t-134.5 -84t-143 -24.5q-57 0 -101.5 13.5t-77 31t-53 37t-28.5 31.5v-488
q0 -29 -22.5 -40t-63.5 -11t-64.5 11.5t-23.5 39.5zM326 205q12 -16 32.5 -35.5t50 -36t67.5 -29t81 -12.5q129 0 192.5 102.5t63.5 288.5q0 80 -13.5 148.5t-43 121t-79.5 82t-124 29.5q-100 0 -163.5 -43t-63.5 -102v-514z" />
    <glyph glyph-name="ydieresis" unicode="&#xff;" horiz-adv-x="950" 
d="M31 -375q0 27 9 44.5t32 17.5q20 0 41.5 -14.5t72.5 -14.5q35 0 65 13.5t56.5 45t53 84t55.5 127.5l28 74q-29 10 -40 26.5t-21 43.5l-328 841q-4 12 -4 17q0 25 30 32t52 7q61 0 90 -35t53 -107l226 -671l221 657q25 76 47.5 116t75.5 40q23 0 38 -6.5t15 -24.5
q0 -14 -4 -25l-332 -948q-78 -223 -163 -323.5t-210 -100.5q-68 0 -113.5 21.5t-45.5 62.5zM215 1245q0 47 30 79t75 32t74.5 -32t29.5 -79t-28.5 -77.5t-75.5 -30.5t-76 30.5t-29 77.5zM582 1245q0 47 29.5 79t74.5 32t75 -32t30 -79t-28.5 -77.5t-76.5 -30.5
q-47 0 -75.5 30.5t-28.5 77.5z" />
    <glyph glyph-name="OE" unicode="&#x152;" horiz-adv-x="1845" 
d="M125 690q0 141 34 269t104.5 225.5t180 155t263.5 57.5q86 0 146 -27t110 -61q0 33 24.5 47t91.5 14h650q33 0 32 -29v-6q0 -35 -21.5 -64.5t-80.5 -29.5h-518v-459h420q29 0 42 -15t13 -52q0 -66 -55 -66h-420v-520h549q59 0 80.5 -29.5t21.5 -64.5v-6q0 -29 -33 -29
h-680q-68 0 -92 14.5t-24 46.5v5q-53 -41 -120 -69t-155 -28q-154 0 -261.5 59.5t-174 159t-97 230.5t-30.5 272zM313 690q0 -115 18.5 -221.5t63.5 -189t119 -133t182 -50.5q168 0 267 103v968q-47 47 -110.5 75t-147.5 28q-111 0 -187 -46t-121 -125t-64.5 -184.5
t-19.5 -224.5z" />
    <glyph glyph-name="oe" unicode="&#x153;" horiz-adv-x="1732" 
d="M98 479q0 102 29 194.5t86 161t142 109.5t200 41q137 0 217 -52t133 -161q63 119 154.5 166t197.5 47q102 0 175 -35t120 -95t70 -140t23 -170q0 -57 -20.5 -71.5t-63.5 -14.5h-560q4 -182 76 -278.5t219 -96.5q51 0 88 7t66 18.5t49.5 26t36.5 26.5q27 20 41 20
q23 0 32 -20.5t9 -46.5q0 -20 -11.5 -34.5t-27.5 -29.5q-47 -37 -121 -59.5t-178 -22.5q-129 0 -225.5 51.5t-149.5 172.5q-25 -45 -53.5 -85t-70.5 -71t-98 -49.5t-136 -18.5q-123 0 -208 41t-138.5 110.5t-78 163t-24.5 195.5zM281 485q0 -72 10 -143.5t39.5 -127.5
t80 -92t130.5 -36q82 0 135 36t84 92t43 127.5t12 143.5t-10 140.5t-38 123t-78 87t-132 32.5q-78 0 -131 -32.5t-85 -87t-46 -123t-14 -140.5zM1001 569h474q2 63 -9.5 119.5t-38 96.5t-70.5 63.5t-108 23.5q-117 0 -178 -79.5t-70 -223.5z" />
    <glyph glyph-name="Ydieresis" unicode="&#x178;" horiz-adv-x="1067" 
d="M33 1341q0 16 19.5 26.5t68.5 10.5q53 0 79.5 -20.5t49.5 -63.5l301 -604l295 572q20 41 49 77.5t82 36.5q18 0 38.5 -4t20.5 -22q0 -10 -8 -25l-399 -747v-539q0 -53 -88 -53q-41 0 -66.5 12t-25.5 41v524l-406 746q-10 20 -10 32zM262 1606q0 47 30 78.5t75 31.5
t74.5 -31.5t29.5 -78.5t-28.5 -78t-75.5 -31t-76 31t-29 78zM629 1606q0 47 29.5 78.5t74.5 31.5t75 -31.5t30 -78.5t-28.5 -78t-76.5 -31q-47 0 -75.5 31t-28.5 78z" />
    <glyph glyph-name="circumflex" unicode="&#x2c6;" horiz-adv-x="772" 
d="M129 1126q0 12 12 31l146 203q20 29 43.5 45t56.5 16t53.5 -12t42.5 -43l148 -209q12 -18 12 -31q0 -16 -14.5 -23t-34.5 -7q-27 0 -43 13t-35 34l-131 139l-129 -141q-16 -18 -34.5 -31.5t-43.5 -13.5q-20 0 -34.5 7t-14.5 23z" />
    <glyph glyph-name="tilde" unicode="&#x2dc;" horiz-adv-x="784" 
d="M78 1182q0 27 9 44t32 40q25 25 62.5 46t84.5 21q43 0 73 -12t56 -25q27 -12 52.5 -23t54.5 -11q39 0 62.5 10t38.5 22.5t27.5 22.5t28.5 10q39 0 39 -43q0 -27 -9 -44t-30 -40q-25 -25 -62.5 -46t-84.5 -21q-43 0 -72.5 12t-56.5 24q-27 14 -52.5 24.5t-54.5 10.5
q-41 0 -63.5 -10t-37.5 -22.5t-27.5 -22.5t-28.5 -10q-41 0 -41 43z" />
    <glyph glyph-name="uni2000" unicode="&#x2000;" horiz-adv-x="887" 
 />
    <glyph glyph-name="uni2001" unicode="&#x2001;" horiz-adv-x="1774" 
 />
    <glyph glyph-name="uni2002" unicode="&#x2002;" horiz-adv-x="887" 
 />
    <glyph glyph-name="uni2003" unicode="&#x2003;" horiz-adv-x="1774" 
 />
    <glyph glyph-name="uni2004" unicode="&#x2004;" horiz-adv-x="591" 
 />
    <glyph glyph-name="uni2005" unicode="&#x2005;" horiz-adv-x="443" 
 />
    <glyph glyph-name="uni2006" unicode="&#x2006;" horiz-adv-x="295" 
 />
    <glyph glyph-name="uni2007" unicode="&#x2007;" horiz-adv-x="295" 
 />
    <glyph glyph-name="uni2008" unicode="&#x2008;" horiz-adv-x="221" 
 />
    <glyph glyph-name="uni2009" unicode="&#x2009;" horiz-adv-x="354" 
 />
    <glyph glyph-name="uni200A" unicode="&#x200a;" horiz-adv-x="98" 
 />
    <glyph glyph-name="uni2010" unicode="&#x2010;" horiz-adv-x="903" 
d="M141 592q0 16 16.5 26.5t45.5 10.5h430q86 0 114.5 -27t28.5 -78q0 -16 -16.5 -26.5t-44.5 -10.5h-430q-86 0 -115 27t-29 78z" />
    <glyph glyph-name="uni2011" unicode="&#x2011;" horiz-adv-x="903" 
d="M141 592q0 16 16.5 26.5t45.5 10.5h430q86 0 114.5 -27t28.5 -78q0 -16 -16.5 -26.5t-44.5 -10.5h-430q-86 0 -115 27t-29 78z" />
    <glyph glyph-name="figuredash" unicode="&#x2012;" horiz-adv-x="903" 
d="M141 592q0 16 16.5 26.5t45.5 10.5h430q86 0 114.5 -27t28.5 -78q0 -16 -16.5 -26.5t-44.5 -10.5h-430q-86 0 -115 27t-29 78z" />
    <glyph glyph-name="endash" unicode="&#x2013;" horiz-adv-x="1024" 
d="M0 588v6q0 31 33 31h889q59 0 80.5 -32t21.5 -67v-6q0 -31 -33 -31h-889q-59 0 -80.5 32t-21.5 67z" />
    <glyph glyph-name="emdash" unicode="&#x2014;" horiz-adv-x="2048" 
d="M0 588v6q0 31 33 31h1913q59 0 80.5 -32t21.5 -67v-6q0 -31 -33 -31h-1913q-59 0 -80.5 32t-21.5 67z" />
    <glyph glyph-name="quoteleft" unicode="&#x2018;" horiz-adv-x="413" 
d="M82 1116q0 106 41 179t104 116q16 10 35 14.5t33 4.5q16 0 31.5 -7.5t15.5 -23.5q0 -12 -8 -20.5t-21 -16.5q-45 -29 -64.5 -64.5t-29.5 -76.5q43 -10 66.5 -46t23.5 -83q0 -51 -28.5 -85t-81.5 -34q-59 0 -88 42t-29 101z" />
    <glyph glyph-name="quoteright" unicode="&#x2019;" horiz-adv-x="413" 
d="M72 999q0 12 8 20.5t20 16.5q45 29 64.5 65t30.5 77q-43 10 -67 46t-24 83q0 51 29 84.5t82 33.5q59 0 88 -42t29 -101q0 -106 -41 -180t-105 -115q-16 -10 -34.5 -14t-32.5 -4q-16 0 -31.5 7t-15.5 23z" />
    <glyph glyph-name="quotesinglbase" unicode="&#x201a;" horiz-adv-x="413" 
d="M72 -211q0 12 8 20.5t20 16.5q45 29 64.5 64.5t30.5 76.5q-43 10 -67 46t-24 83q0 51 29 85t82 34q59 0 88 -42t29 -101q0 -106 -40 -181t-106 -114q-16 -10 -34.5 -14.5t-32.5 -4.5q-16 0 -31.5 7.5t-15.5 23.5z" />
    <glyph glyph-name="quotedblleft" unicode="&#x201c;" horiz-adv-x="770" 
d="M82 1116q0 106 41 179t104 116q16 10 35 14.5t33 4.5q16 0 31.5 -7.5t15.5 -23.5q0 -12 -8 -20.5t-21 -16.5q-45 -29 -64.5 -64.5t-29.5 -76.5q43 -10 66.5 -46t23.5 -83q0 -51 -28.5 -85t-81.5 -34q-59 0 -88 42t-29 101zM438 1116q0 106 41 179t104 116q16 10 35 14.5
t33 4.5q16 0 31.5 -7.5t15.5 -23.5q0 -12 -8 -20.5t-21 -16.5q-45 -29 -64.5 -64.5t-29.5 -76.5q43 -10 66.5 -46t23.5 -83q0 -51 -28.5 -85t-81.5 -34q-59 0 -88 42t-29 101z" />
    <glyph glyph-name="quotedblright" unicode="&#x201d;" horiz-adv-x="770" 
d="M72 999q0 12 8 20.5t20 16.5q45 29 64.5 65t30.5 77q-43 10 -67 46t-24 83q0 51 29 84.5t82 33.5q59 0 88 -42t29 -101q0 -106 -41 -180t-105 -115q-16 -10 -34.5 -14t-32.5 -4q-16 0 -31.5 7t-15.5 23zM428 999q0 12 8 20.5t20 16.5q45 29 64.5 65t30.5 77
q-43 10 -67 46t-24 83q0 51 29 84.5t82 33.5q59 0 88 -42t29 -101q0 -106 -41 -180t-105 -115q-16 -10 -34.5 -14t-32.5 -4q-16 0 -31.5 7t-15.5 23z" />
    <glyph glyph-name="quotedblbase" unicode="&#x201e;" horiz-adv-x="770" 
d="M72 -211q0 12 8 20.5t20 16.5q45 29 64.5 64.5t30.5 76.5q-43 10 -67 46t-24 83q0 51 29 85t82 34q59 0 88 -42t29 -101q0 -106 -40 -181t-106 -114q-16 -10 -34.5 -14.5t-32.5 -4.5q-16 0 -31.5 7.5t-15.5 23.5zM428 -211q0 12 8 20.5t20 16.5q45 29 64.5 64.5
t30.5 76.5q-43 10 -67 46t-24 83q0 51 29 85t82 34q59 0 88 -42t29 -101q0 -106 -40 -181t-106 -114q-16 -10 -34.5 -14.5t-32.5 -4.5q-16 0 -31.5 7.5t-15.5 23.5z" />
    <glyph glyph-name="bullet" unicode="&#x2022;" horiz-adv-x="784" 
d="M129 717q0 55 18.5 104t53.5 85t83 57.5t107 21.5t107.5 -21.5t83 -57.5t54 -85t19.5 -104t-19.5 -103.5t-55 -84t-83.5 -57t-106 -21.5q-59 0 -107 21.5t-83 57t-53.5 84t-18.5 103.5z" />
    <glyph glyph-name="ellipsis" unicode="&#x2026;" horiz-adv-x="1259" 
d="M113 96q0 53 33.5 90t82.5 37q51 0 85 -37t34 -90t-32.5 -90t-86.5 -37q-51 0 -83.5 37t-32.5 90zM516 96q0 53 33.5 90t82.5 37q51 0 85 -37t34 -90t-32.5 -90t-86.5 -37q-51 0 -83.5 37t-32.5 90zM912 96q0 53 33.5 90t82.5 37q51 0 85 -37t34 -90t-32.5 -90t-86.5 -37
q-51 0 -83.5 37t-32.5 90z" />
    <glyph glyph-name="uni202F" unicode="&#x202f;" horiz-adv-x="354" 
 />
    <glyph glyph-name="guilsinglleft" unicode="&#x2039;" horiz-adv-x="604" 
d="M113 563q0 35 21.5 65.5t49.5 57.5l224 199q25 23 47 22q23 0 32 -20.5t9 -38.5q0 -25 -9.5 -41t-25.5 -35l-182 -207l182 -219q16 -18 25.5 -34.5t9.5 -41.5q0 -18 -8.5 -37.5t-28.5 -19.5t-47 25l-234 202q-31 27 -48 56.5t-17 66.5z" />
    <glyph glyph-name="guilsinglright" unicode="&#x203a;" horiz-adv-x="604" 
d="M109 270q0 25 9 41.5t25 34.5l183 219l-183 207q-16 18 -25 34.5t-9 41.5q0 18 9 38.5t32 20.5t47 -22l223 -199q29 -27 50.5 -57.5t21.5 -65.5q0 -37 -17.5 -66.5t-48.5 -56.5l-233 -202q-31 -25 -48 -25q-20 0 -28 19.5t-8 37.5z" />
    <glyph glyph-name="uni205F" unicode="&#x205f;" horiz-adv-x="443" 
 />
    <glyph glyph-name="Euro" unicode="&#x20ac;" 
d="M57 504q0 41 11.5 55t46.5 14h96q-2 23 -2 46.5v48.5t1 50t3 50h-98q-35 0 -46.5 15.5t-11.5 54.5q0 35 11.5 49t46.5 14h116q20 104 63.5 191.5t106 149t146.5 95t188 33.5q117 0 194 -30.5t130 -75.5q41 -35 41 -76q0 -31 -12.5 -52.5t-36.5 -21.5q-10 0 -17.5 3
t-23.5 18q-29 25 -54.5 44t-57.5 32.5t-71 21.5t-92 8q-74 0 -129 -25.5t-95 -70.5t-66.5 -107.5t-41.5 -136.5h435q35 0 47 -14.5t12 -48.5q0 -39 -12.5 -54.5t-46.5 -15.5h-453q-2 -25 -2 -49.5v-48.5v-49.5t2 -47.5h453q35 0 47 -14t12 -55q0 -35 -12.5 -49.5
t-46.5 -14.5h-439q12 -72 37 -134t66 -108t100.5 -73t142.5 -27q92 0 151.5 31t111.5 74q16 14 23 17t18 3q25 0 37 -22.5t12 -50.5q0 -45 -41 -76q-59 -47 -134 -76t-190 -29q-113 0 -198.5 34t-148 95.5t-101.5 148.5t-58 193h-112q-35 0 -46.5 14.5t-11.5 49.5z" />
    <glyph glyph-name="trademark" unicode="&#x2122;" horiz-adv-x="1591" 
d="M51 1294v4q0 23 14.5 47.5t53.5 24.5h518q20 0 20 -24v-5q0 -23 -14 -45t-53 -22h-176v-598q0 -20 -16.5 -28.5t-45.5 -8.5t-45 8t-16 29v598h-219q-20 0 -21 20zM692 672l58 676q0 16 17 23t42 7q35 0 51.5 -11t24.5 -30l180 -430l207 432q8 16 26.5 27.5t38.5 11.5
t38 -7t18 -23l53 -676q2 -16 -14.5 -24.5t-42.5 -8.5q-25 0 -42.5 8t-19.5 25l-41 506l-164 -369q-12 -29 -59 -29q-53 0 -64 27l-153 367l-39 -502q-2 -16 -19.5 -24.5t-39.5 -8.5q-59 0 -56 33z" />
    <glyph glyph-name="uni25FC" unicode="&#x25fc;" horiz-adv-x="972" 
d="M0 0v973h973v-973h-973z" />
    </font>
</defs>
</svg>
