<svg xmlns="http://www.w3.org/2000/svg" width="150" height="27.643" viewBox="0 0 150 27.643"><path d="M15.4,10.942a9.251,9.251,0,0,1,2.529,6.65,9.344,9.344,0,0,1-1.555,5.377A9.559,9.559,0,0,1,2.732,24.318,9.059,9.059,0,0,1,0,17.592,8.965,8.965,0,0,1,2.75,10.959c3.3-3.072,9.385-3.166,12.645-.019Zm-2.773,1.536a8.507,8.507,0,0,1,1.443,5.114,9.494,9.494,0,0,1-.768,4.233,4.662,4.662,0,0,1-7.887.918,8.38,8.38,0,0,1-1.648-5.152A8.416,8.416,0,0,1,5.2,12.4a4.845,4.845,0,0,1,7.418.075Zm46.852-1.536A9.251,9.251,0,0,1,62,17.592a9.344,9.344,0,0,1-1.555,5.377,9.559,9.559,0,0,1-13.638,1.349,9.12,9.12,0,0,1-2.735-6.725,8.965,8.965,0,0,1,2.753-6.632c3.3-3.072,9.385-3.166,12.645-.019ZM56.7,12.478a8.507,8.507,0,0,1,1.443,5.114,9.494,9.494,0,0,1-.768,4.233,4.662,4.662,0,0,1-7.887.918,8.38,8.38,0,0,1-1.648-5.152A8.416,8.416,0,0,1,49.284,12.4a4.845,4.845,0,0,1,7.418.075Zm90.762-1.536a9.251,9.251,0,0,1,2.529,6.65,9.343,9.343,0,0,1-1.555,5.377A9.559,9.559,0,0,1,134.8,24.318a9.121,9.121,0,0,1-2.735-6.726,8.964,8.964,0,0,1,2.753-6.633c3.3-3.072,9.385-3.166,12.645-.019Zm-2.772,1.536a8.507,8.507,0,0,1,1.442,5.114,9.494,9.494,0,0,1-.768,4.233,4.662,4.662,0,0,1-7.887.918,8.382,8.382,0,0,1-1.648-5.152,8.416,8.416,0,0,1,1.443-5.189,4.845,4.845,0,0,1,7.418.075ZM76.184,9.05h3.746V26.06H76.184Zm49.381,0h3.746V26.06h-3.746Zm-1.724,0V11.2c-1.854-.468-3.335-.393-4.215.337a2.668,2.668,0,0,0-.88,1.648,6.418,6.418,0,0,0-.056,1.2V26.06h-3.746V14.913a6.041,6.041,0,0,1,2.1-4.927c1.592-1.2,3.953-1.386,6.8-.937ZM74.161,26.1,73.693,24.2c-1.854.468-3.335.393-4.215-.337a2.669,2.669,0,0,1-.88-1.648,6.424,6.424,0,0,1-.056-1.2V11.26h5.414V9.068H68.542V6.146c.056-2.192-1.386-2.847-3.747-2.6V20.513a6.041,6.041,0,0,0,2.1,4.927c1.574,1.2,4.178,1.405,7.269.656Zm22.068-.449c-3.428,1.461-8.374,1.049-10.734-.86-1.873-1.5-2.9-3.953-2.9-7.192a8.965,8.965,0,0,1,2.753-6.632c2.642-2.473,7.158-3,10.416-1.7v2.285a6.877,6.877,0,0,0-7.287.468c-1.48,1.236-2.023,3.353-2,5.472a8.441,8.441,0,0,0,1.611,5.283,5.465,5.465,0,0,0,4.627,1.63,6.22,6.22,0,0,0,2.922-.826l.6,2.08ZM98.814,11.71V9.462c4.983-1.5,7.568-3.541,9.31-5.826h3.052a14.291,14.291,0,0,1-6.482,5.077,9.7,9.7,0,0,1,4.365.843,5.187,5.187,0,0,1,2.847,4.026,14.358,14.358,0,0,1,.131,2.379V26.247h-.581c-1.78,0-2.81-.6-2.959-2.042a7.058,7.058,0,0,1-5.358,2.34,6.486,6.486,0,0,1-4.458-1.405,4.764,4.764,0,0,1-1.48-3.447,5.032,5.032,0,0,1,2.753-4.814,10.818,10.818,0,0,1,5.339-1.218l3.072.019V14.633a3.9,3.9,0,0,0-.619-2.229,3.753,3.753,0,0,0-1.5-1.273c-1.742-.787-4.346-.468-7.437.581Zm9.554,6.013H105.9a6.486,6.486,0,0,0-4.026,1.067,3.185,3.185,0,0,0-1.03,2.716,2.85,2.85,0,0,0,1.517,2.679,3.217,3.217,0,0,0,1.386.337,4.773,4.773,0,0,0,4.384-2.847,3.584,3.584,0,0,0,.244-1.33V17.724ZM24.65,2.287H23.376c-.019,0-.019,0-.038-.019-.019,0-.038,0-.038-.019h-.019c-.019,0-.019,0-.038-.019h-.021l-.038-.019h-.019l-.038-.019h-.019l-.038-.019h-.019l-.038-.019L23,2.138h-.017l-.019-.019L22.947,2.1h-.019l-.038-.019-.019-.019-.019-.019-.019-.019-.019-.019L22.8,1.99l-.038-.019-.019-.019-.019-.019L22.7,1.915,22.686,1.9l-.038-.038-.019-.019-.019-.019L22.592,1.8l-.038-.038L22.5,1.71l-.038-.038V1.65a.258.258,0,0,1-.056-.075.813.813,0,0,1-.075-.131A2.34,2.34,0,0,1,22.1,0h9.423A10.607,10.607,0,0,1,37.8,1.744a6.105,6.105,0,0,1,2.491,4.983,5.77,5.77,0,0,1-1.536,4.026A8.39,8.39,0,0,1,36.189,12.5a9.429,9.429,0,0,1,3.072,1.517A7.255,7.255,0,0,1,42,19.82,7.026,7.026,0,0,1,40.311,24.5c-3.278,3.653-10.659,4.215-14.743,1.18A7.259,7.259,0,0,1,22.832,21.6a17.894,17.894,0,0,1-.506-4.1V4.31a4.689,4.689,0,0,1,2.716.337,3.2,3.2,0,0,1,1.18,2.922L26.2,17.648a10.072,10.072,0,0,0,1.255,5.1,5.135,5.135,0,0,0,2.566,2.229,6.806,6.806,0,0,0,6.013-.619c1.742-1.273,1.911-3.41,1.893-4.721a5.328,5.328,0,0,0-2.08-4.5,6.488,6.488,0,0,0-3.785-1.105H28.639V11.5h3.746a4.086,4.086,0,0,0,.937-.206,3.437,3.437,0,0,0,1.48-.731A5.392,5.392,0,0,0,36.338,6.3c-.15-2.1-1.368-4.065-5.9-4.065H24.65Z" transform="translate(0.004 -0.001)" fill="#fff" fill-rule="evenodd"/></svg>